<svg width="965" height="965" viewBox="0 0 965 965" fill="none" xmlns="http://www.w3.org/2000/svg">
<circle cx="482.5" cy="482.5" r="482.5" fill="#DDE0F8"/>
<path d="M528.41 264.409C528.639 248.323 527.183 238.171 523.699 232.49C496.99 232.49 469.937 232.49 441.984 232.49C441.526 243.259 441.411 253.562 442.245 264.409C471.458 264.409 499.672 264.409 528.41 264.409ZM363.801 634.195C363.605 651.745 362.035 669.608 364.374 687.254C368.283 716.813 394.862 733.93 414.914 733.39C460.417 732.896 505.985 734.038 551.521 732.836C577.855 732.656 598.12 707.569 598.84 682.277C599.379 667.949 598.12 653.68 597.842 639.388C597.76 635.121 593.671 631.154 589.86 632.235C581.404 634.64 572.997 632.813 564.623 632.824C500.097 632.873 435.572 632.705 371.063 632.633C369.068 632.633 366.974 632.235 363.801 634.195ZM364.423 448.958C442.851 448.618 520.395 449.383 599.118 449.931C599.101 434.936 600.23 421.203 598.251 407.58C592.821 367.473 562.513 342.261 523.029 337.983C515.031 336.18 513.231 334.15 513.215 326.129C513.182 315.902 513.411 305.673 513.395 295.447C513.395 292.938 514.245 290.151 511.22 287.328C493.408 287.375 474.909 286.482 456.541 287.342C456.083 289.166 455.674 290.003 455.707 290.823C456.066 299.869 455.919 308.983 457.032 317.935C458.602 330.333 451.062 338.771 439.04 340.062C384.77 344.986 357.553 400.313 364.423 448.958ZM598.382 473.034C586.294 471.454 372.159 471.835 366.206 473.396C363.392 481.284 363.016 493.433 365.551 502.245C388.499 503.411 411.774 501.679 434.574 503.121C440.626 515.563 440.446 516.561 433.331 522.464C430.551 524.783 427.476 524.772 424.27 524.783C407.603 524.867 390.969 524.891 374.318 525.035C371.194 525.06 367.907 524.291 364.472 526.417C364.472 535.673 364.472 545.134 364.472 554.835C368.119 556.362 371.652 555.929 375.071 555.989C393.193 556.289 411.283 556.565 429.39 556.794C433.479 556.843 436.635 557.684 438.189 562.239C441.084 570.751 435 578.756 425.513 578.023C408.306 576.688 391.067 577.097 373.844 576.845C370.736 576.796 367.383 576.112 363.981 578.731C363.981 588.985 363.981 599.636 363.981 611.321C441.853 610.177 519.087 609.998 596.206 610.285C599.167 605.117 599.232 600.213 599.232 595.249C599.265 557.564 599.347 519.891 599.363 482.207C599.363 479.343 599.903 476.389 598.382 473.034ZM432.105 318.607C432.105 314.386 434.869 311.165 434.673 307.011C434.329 300.36 434.574 293.682 434.574 288.127C431.908 285.11 429.259 285.464 427.247 284.324C423.223 282.038 420.361 278.968 420.214 274.007C419.756 257.939 419.249 241.859 420.394 225.814C421.032 216.841 426.135 211.358 434.869 209.372C437.404 208.795 440.087 208.617 442.687 208.6C473.355 208.594 504.088 208.074 534.707 209.731C543.523 211.031 549.46 217.418 549.591 226.412C549.82 241.02 549.738 255.632 549.738 270.243C549.738 279.369 543.474 283.322 535.868 286.488C534.625 294.477 535.051 302.637 534.936 310.769C534.871 314.196 536.441 316.08 539.794 316.976C544.881 318.331 549.918 319.875 554.858 321.63C609.357 340.297 624.126 388.558 621.869 441.609C621.918 519.927 621.902 598.241 621.967 676.556C623.897 718.04 594.407 751.516 554.351 755.087C512.315 756.673 470.198 755.579 428.13 756.037C421.719 756.048 415.258 755.976 408.879 755.411C373.697 752.262 345.204 723.184 343.176 687.915C341.442 603.218 343.487 518.424 343.029 433.701C343.258 391.224 362.198 344.283 403.71 327.395C412.821 323.517 421.947 319.503 432.105 318.607Z" fill="#231F20"/>
</svg>
