<svg width="574" height="607" viewBox="0 0 574 607" fill="none" xmlns="http://www.w3.org/2000/svg">
<path d="M297.507 165.58C296.549 192.432 295.358 223.045 318.204 241.45C346.71 266.19 395.495 247.2 405.908 215.492C411.362 198.891 409.57 181.78 408.772 164.979C398.497 163.129 304.707 163.53 297.507 165.58ZM162.981 163.499C162.981 176.848 162.921 189.734 163.003 202.636C163.052 210.282 165.529 217.296 169.557 223.693C185.216 248.51 204.756 253.18 230.403 249.311C246.821 246.845 258.691 237.689 266.934 223.261C277.653 204.501 272.253 184.262 274.348 163.499C236.562 163.499 200.145 163.499 162.981 163.499ZM141.743 162.558C103.248 163.437 66.2841 161.079 28.6973 163.853C28.6942 178.466 28.0437 191.646 29.898 204.856C34.359 239.045 68.4544 261.628 101.381 250.206C121.254 242.776 132.67 227.824 137.741 207.877C141.35 193.68 140.047 178.975 141.743 162.558ZM545.741 161.88C507.459 162.821 470.691 162.574 433.119 163.745C432.862 180.254 431.792 195.391 433.878 210.513C434.183 212.717 435.061 214.891 435.835 217.018C441.397 232.309 463.746 253.258 489.29 253.088C510.318 252.949 531.253 238.753 539.413 217.65C546.205 200.093 545.766 181.642 545.741 161.88ZM47.2363 135.429C51.2595 137.525 54.8788 136.693 58.3533 136.693C213.846 136.508 369.34 136.785 524.833 136.261C527.487 136.23 530.627 137.248 532.523 134.458C532.572 132.346 531.336 131.174 530.42 129.88C508.456 99.0043 486.514 68.1136 463.879 37.7162C458.478 30.4559 452.728 27.5272 443.689 27.558C340.674 27.9279 237.658 27.9742 134.644 27.8663C128.348 27.8663 124.438 29.9318 121.03 34.9878C99.6535 66.7263 75.3046 96.2297 52.2383 126.704C50.3239 129.232 47.819 131.483 47.2363 135.429ZM98.4511 580.092C101.617 582.204 103.949 581.71 106.171 581.71C224.18 582.204 342.189 582.435 460.201 582.265C471.656 582.25 472.13 581.818 472.232 572.246C473.256 476.599 473.598 380.967 473.088 285.32C473.072 282.514 473.827 279.416 470.749 276.626C450.912 269.057 433.856 256.68 420.957 236.841C387.558 288.973 319.835 288.079 285.078 238.105C254.514 287.123 183.66 288.403 150.745 241.126C135.662 257.759 119.493 271 98.4511 277.227C98.4511 378.686 98.4511 479.42 98.4511 580.092ZM497.37 278.306C498.011 379.379 496.488 479.743 499.072 579.599C503.631 582.034 507.26 581.433 510.748 581.479C526.958 581.741 543.173 581.772 559.38 582.127C571.073 582.373 575.873 590.266 571.389 601.194C570.238 604 568.046 605.156 565.405 605.418C561.544 605.819 557.644 605.927 553.759 605.973C374.787 607.175 195.808 606.389 16.8358 606.482C10.1921 606.035 4.63656 608.439 1.6819 599.776C-2.70723 586.905 1.41415 581.017 14.9876 581.772C32.1702 582.728 49.3481 581.865 66.5245 582.111C68.3989 582.127 70.278 581.71 73.4009 581.371C73.4626 479.959 72.0907 378.948 74.6233 278.738C73.2884 276.364 71.7331 275.917 70.0976 275.778C32.9748 273.312 4.42984 236.579 4.14853 201.002C4.13558 184.139 4.01165 167.291 3.61935 150.427C3.51268 145.834 5.06215 142.473 7.92617 139.082C44.343 97.2162 76.0784 51.6971 110.821 8.49017C114.747 3.24921 119.091 1.38409 125.57 1.4303C236.132 1.76947 346.701 1.35321 457.261 0.859985C464.429 0.813721 468.687 3.00262 473.259 8.78308C500.249 42.8492 524.598 78.873 551.369 113.093C571.32 138.589 571.122 138.758 570.735 171.514C570.635 179.946 570.1 188.378 570.282 196.794C571.169 238.09 537.93 267.47 508.852 275.146C505.424 276.056 502.013 277.027 497.37 278.306Z" fill="#10355B"/>
<path d="M142.85 412.796C136.891 403.969 139.247 390.81 151.58 390.383C237.415 390.156 323.264 390.329 409.104 390.289C419.003 390.849 441.951 384.636 442.206 399.556C442.28 406.076 437.55 412.596 432.279 413.17C339.651 413.41 246.991 413.676 154.352 413.876C150.527 413.89 146.574 414.583 142.85 412.796Z" fill="#10355B"/>
<path d="M156.808 484.516C156.492 494.57 166.147 504.196 176.627 504.29C186.076 504.37 195.199 494.97 195.776 484.556C196.331 474.556 187.368 465.436 176.843 465.29C165.571 465.13 157.163 473.21 156.808 484.516ZM177.266 441.663C201.478 441.423 219.844 460.01 220.05 484.97C220.242 508.196 199.412 528.65 175.779 528.823C154.916 528.983 131.491 514.876 131.787 485.85C132.047 460.303 150.652 441.93 177.266 441.663Z" fill="#10355B"/>
</svg>
