<svg width="1231" height="1231" viewBox="0 0 1231 1231" fill="none" xmlns="http://www.w3.org/2000/svg">
<circle cx="615.5" cy="615.498" r="605.5" fill="#62D7AB" fill-opacity="0.5" stroke="#10355B" stroke-width="20"/>
<path d="M432 789.498C411.333 775.498 359.8 755.898 319 789.498C268 831.498 330 1029 395 1006C460 982.998 413 981.498 467.5 1006C522 1030.5 622 842.498 527 769.998C503 757.198 453.667 777.664 432 789.498Z" fill="#57CDBF" stroke="black"/>
<path d="M447.307 525.752C447.801 525.752 448.355 525.623 448.901 525.331L448.951 525.303C450.8 524.336 451.471 522.103 450.553 520.347L450.549 520.341L450.546 520.334C437.53 495.284 426.823 467.33 418.778 437.251C405.354 387.184 401.064 337.756 406.939 298C409.636 279.737 414.433 264.307 421.1 252.672C427.754 241.061 436.568 232.758 447.418 229.847V229.846C458.278 226.917 470.075 229.702 481.649 236.435C493.243 243.18 505.113 254.151 516.573 268.617L516.574 268.618C541.518 300.124 562.498 345.051 575.921 395.118C587.218 437.249 592.114 480.302 589.652 516.449C589.516 518.501 591.065 520.258 593.081 520.391L593.103 520.392L593.123 520.394C595.115 520.541 596.857 519.044 596.992 516.998V516.987C599.528 479.755 594.728 436.948 583.011 393.237V393.235C569.477 342.659 548.275 297.457 523.492 265.581L522.31 264.073C499.476 235.266 476.429 221.362 456.425 221.333H456.299C452.618 221.333 449.039 221.805 445.518 222.754L445.509 222.756L444.466 223.051C422.982 229.423 406.49 253.581 399.977 294.944L399.67 296.958C393.734 337.271 397.937 387.789 411.688 439.173L411.687 439.174C419.914 469.856 430.815 498.299 444.036 523.784L444.04 523.792C444.663 524.998 445.945 525.752 447.307 525.752Z" fill="#10355B" stroke="#10355B" stroke-width="11"/>
<path d="M403.121 302.799H541.385C543.378 302.799 545.022 301.204 545.045 299.125C545.035 297.102 543.406 295.481 541.385 295.481H403.121C401.094 295.481 399.461 297.113 399.461 299.143C399.461 301.169 401.089 302.799 403.121 302.799Z" fill="#10355B" stroke="#10355B" stroke-width="11"/>
<path d="M403.389 380.875H574.604C576.655 380.875 578.293 379.218 578.293 377.218C578.293 375.185 576.66 373.555 574.637 373.555H403.389C401.362 373.555 399.73 375.186 399.73 377.218C399.73 379.243 401.36 380.874 403.389 380.875Z" fill="#10355B" stroke="#10355B" stroke-width="11"/>
<path d="M420.165 458.912H591.378C593.462 458.911 595.051 457.271 595.039 455.289L595.038 455.272V455.255C595.038 453.227 593.406 451.595 591.378 451.595H420.165C418.138 451.595 416.505 453.226 416.505 455.255C416.505 457.281 418.134 458.912 420.165 458.912Z" fill="#10355B" stroke="#10355B" stroke-width="11"/>
<path d="M806.004 513.47C807.212 513.47 808.397 512.873 809.113 511.797L809.25 511.576C817.13 497.476 821.306 481.444 821.306 465.186C821.306 412.731 778.608 370.033 726.152 370.033C673.663 370.033 630.965 412.732 630.965 465.186C630.965 480.22 634.587 495.264 641.429 508.567L641.43 508.568C642.355 510.367 644.575 511.076 646.363 510.154L646.368 510.152C648.168 509.227 648.877 507.006 647.955 505.217L647.951 505.21L647.947 505.203C641.576 492.749 638.316 479.241 638.316 465.153C638.317 416.722 677.722 377.318 726.152 377.318C774.557 377.318 813.954 416.724 813.954 465.153C813.954 480.151 810.091 494.962 802.826 507.993L802.82 508.003L802.731 508.17C801.866 509.914 802.503 512.028 804.235 513L804.272 513.021C804.806 513.325 805.368 513.47 806.004 513.47Z" fill="#10355B" stroke="#10355B" stroke-width="11"/>
<path d="M726.155 377.352C726.354 377.352 726.616 377.323 727.271 377.237C729.119 376.697 730.253 374.793 729.822 372.901C729.691 372.346 725.764 354.719 726.971 335.651C728.149 317.051 734.53 293.911 757.975 287.496V287.495C759.915 286.961 761.07 284.954 760.545 282.999C759.977 281.038 757.979 279.904 755.994 280.432C748.497 282.457 740.289 286.521 733.576 294.442C726.872 302.355 721.295 314.547 719.79 333.467C718.957 343.966 719.607 354.052 720.503 361.654C720.95 365.444 721.454 368.589 721.857 370.824C722.058 371.941 722.233 372.828 722.362 373.453C722.426 373.766 722.479 374.012 722.517 374.187C722.536 374.274 722.552 374.342 722.563 374.392C722.573 374.436 722.579 374.459 722.579 374.462L722.584 374.483L722.589 374.506C722.975 376.18 724.502 377.352 726.155 377.352Z" fill="#10355B" stroke="#10355B" stroke-width="11"/>
<path d="M467.833 1010.98C496.237 1014.55 525.002 995.215 545.809 954.199V954.198C559.717 926.735 568.045 892.928 568.6 861.602V861.601C569.222 826.665 560.087 798.348 543.861 781.124C535.72 772.52 523.784 764.41 506.47 761.479C489.092 758.538 465.818 760.736 434.934 773.634L432.812 774.52L430.692 773.633C399.808 760.718 376.527 758.514 359.146 761.455C341.826 764.386 329.891 772.506 321.768 781.122L321.766 781.124L321.011 781.938C305.26 799.199 296.415 827.205 297.027 861.601H297.028V861.607C297.551 892.926 305.907 926.731 319.82 954.197V954.198C338.974 992.015 364.935 1011.37 391.042 1011.37H391.079L391.116 1011.38C393.252 1011.4 395.477 1011.26 397.876 1011.01C405.664 1010.03 409.289 1005.91 412.319 1002.43V1002.43C413.065 1001.57 414.149 1000.28 415.269 999.32L415.606 999.029L415.986 998.796C418.178 997.454 421.243 996.841 423.771 996.496C426.569 996.114 429.779 995.939 432.918 995.945C436.057 995.952 439.264 996.141 442.058 996.536C444.572 996.892 447.646 997.523 449.834 998.898L450.245 999.156L450.604 999.482C451.586 1000.37 452.53 1001.46 453.336 1002.39C456.322 1005.82 459.996 1009.98 467.834 1010.98L467.833 1010.98ZM396.867 1003.68C377.644 1006.11 361.897 996.469 350.335 984.955C338.753 973.422 330.624 959.312 326.352 950.89C313.301 925.238 305.259 893.088 304.454 863.046C303.654 833.202 309.984 804.256 327.05 786.159V786.158C339.901 772.523 356.526 767.689 373.427 767.689C393.392 767.689 414.275 774.439 431.293 781.874L431.305 781.879L431.317 781.885C432.209 782.279 433.285 782.285 434.239 781.873V781.872C449.899 775.041 468.778 768.813 487.22 767.845C505.753 766.872 524.373 771.213 538.475 786.156L538.479 786.159C555.527 804.256 561.837 833.196 561.033 863.034C560.224 893.07 552.192 925.218 539.179 950.883L539.177 950.887L538.331 952.527C533.877 961.043 526.053 974.116 515.193 984.931C503.632 996.443 487.887 1006.09 468.667 1003.68L468.646 1003.67L468.626 1003.67C466.455 1003.38 464.53 1002.76 462.689 1001.42C461.161 1000.3 459.874 998.777 458.794 997.536C457.59 996.158 456.546 994.96 455.223 993.798L455.211 993.787L455.199 993.777C453.707 992.452 450.861 991.079 446.682 990.06C442.625 989.07 437.819 988.538 432.921 988.517C428.023 988.495 423.206 988.985 419.126 989.938C414.947 990.915 412.069 992.257 410.53 993.573C409.083 994.856 407.907 996.164 406.761 997.503L406.746 997.52L406.732 997.536L405.893 998.502C405.009 999.507 403.995 1000.59 402.857 1001.43C401 1002.8 399.053 1003.41 396.866 1003.68H396.867Z" fill="#58CEBE" stroke="#10355B" stroke-width="11"/>
<path d="M432.747 782.15C433.165 782.15 433.515 782.092 433.822 781.985L433.884 781.964L433.947 781.943C435.839 781.335 436.902 779.258 436.278 777.355L436.275 777.349L436.273 777.341C427.617 750.737 432.37 731.329 439.989 718.355C447.478 705.602 457.429 699.568 458.585 698.88L458.618 698.86L458.65 698.842C460.413 697.824 461.021 695.581 460.032 693.831L460.02 693.812C459.043 692.067 456.808 691.416 454.996 692.433L454.994 692.435L454.474 692.746C454.135 692.956 453.64 693.272 453.017 693.698C451.775 694.547 450.038 695.822 448.027 697.538C443.998 700.977 438.927 706.143 434.522 713.167C426.595 725.839 418.909 747.777 429.287 779.639L429.291 779.649L429.293 779.659C429.774 781.155 431.181 782.15 432.747 782.15Z" fill="#10355B" stroke="#10355B" stroke-width="11"/>
<path d="M779.767 1011.41H892.702C896.266 1011.41 899.693 1009.59 902.41 1005.85C905.16 1002.05 907.026 996.403 906.998 989.585V989.562C906.998 969.069 907.398 948.247 907.769 928.196C907.819 924.872 907.878 921.558 907.937 918.248C907.995 914.93 908.054 911.616 908.104 908.286V908.279C908.902 858.891 906.03 835.851 897.387 795.1V795.099C886.162 742.17 886.961 701.589 887.148 695.896L887.174 695.229C887.249 693.225 885.688 691.516 883.665 691.418C881.606 691.349 879.904 692.95 879.812 694.888C879.734 696.859 877.974 739.003 890.198 796.642V796.645C898.529 836.015 901.381 857.879 900.812 903.652L900.747 908.158C900.647 914.746 900.517 921.458 900.412 928.05V928.061L900.411 928.071L900.264 935.648C899.925 953.393 899.643 971.556 899.643 989.529C899.643 995.473 897.741 999.862 896.003 1002.01L894.353 1004.05H777.999L776.348 1002C774.63 999.857 772.726 995.478 772.726 989.529C772.726 965.494 772.321 941.283 771.921 917.859L771.751 908.13V908.124C770.964 860.8 773.503 838.687 781.514 800.367L782.306 796.607C794.478 739.184 792.777 697.14 792.691 694.86C792.595 692.903 790.909 691.308 788.82 691.385C786.793 691.493 785.234 693.214 785.325 695.236L785.32 695.237C785.491 698.791 786.74 740.16 775.117 795.063L775.116 795.065L774.323 798.836C766.297 837.283 763.627 860.401 764.4 908.246L764.399 908.247L764.564 918.006V918.011C764.935 941.342 765.371 965.519 765.371 989.529C765.371 996.368 767.259 1002.03 770.026 1005.83C772.762 1009.59 776.202 1011.41 779.767 1011.41Z" fill="#10355B" stroke="#10355B" stroke-width="11"/>
<path d="M771.381 839.894H901.26C903.258 839.907 904.897 838.271 904.886 836.266V836.234C904.886 834.208 903.254 832.574 901.224 832.574H771.381C769.35 832.574 767.718 834.208 767.718 836.234C767.718 838.26 769.35 839.894 771.381 839.894ZM768.862 961.651H903.642C905.69 961.651 907.311 959.976 907.298 958.031V957.992C907.298 955.961 905.668 954.333 903.642 954.333H768.862C766.836 954.333 765.206 955.961 765.206 957.992C765.206 960.022 766.836 961.651 768.862 961.651Z" fill="#10355B" stroke="#10355B" stroke-width="11"/>
<path d="M789.059 698.708H883.541C885.613 698.708 887.214 697.044 887.201 695.085V656.498C887.201 654.467 885.572 652.837 883.541 652.837C881.514 652.838 879.882 654.469 879.882 656.498V691.355H792.719V656.498C792.719 654.467 791.09 652.837 789.059 652.837C787.032 652.838 785.4 654.469 785.4 656.498V695.047C785.4 697.075 787.033 698.707 789.059 698.708Z" fill="#10355B" stroke="#10355B" stroke-width="11"/>
<path d="M761.617 660.157H910.987C913.048 660.157 914.656 658.5 914.642 656.54V629.288C914.642 612.263 900.798 598.418 883.773 598.418H788.824C771.799 598.418 757.955 612.263 757.955 629.288V656.501C757.955 658.524 759.583 660.157 761.617 660.157ZM765.308 629.288C765.308 616.32 775.856 605.772 788.824 605.771H883.773C896.77 605.772 907.325 616.313 907.325 629.288V652.84H765.308V629.288Z" fill="#10355B" stroke="#10355B" stroke-width="11"/>
<path d="M358.498 768.933C360.546 768.932 362.17 767.29 362.157 765.276V488.683L370.126 492.687L440.367 527.978L440.368 527.977C441.45 528.516 442.674 528.501 443.687 527.989L443.699 527.983L523.148 488.087L525.617 486.848L528.085 488.087L607.536 527.983L607.542 527.986L607.549 527.99C608.569 528.506 609.782 528.508 610.813 527.987L610.821 527.983L690.266 488.087L692.734 486.848L695.203 488.087L774.653 527.983L774.66 527.986L774.667 527.99C775.689 528.507 776.939 528.507 777.961 527.99L777.967 527.986L777.973 527.983L848.26 492.686L856.228 488.685V602.11C856.228 604.142 857.861 605.773 859.892 605.773C861.895 605.773 863.55 604.131 863.55 602.11V482.735C863.549 481.502 862.901 480.317 861.8 479.638L861.793 479.634C860.678 478.944 859.361 478.896 858.251 479.458L858.241 479.463L858.232 479.468L778.781 519.358L776.313 520.598L773.845 519.358L694.395 479.468L694.371 479.456L694.347 479.443C693.388 478.95 692.163 478.935 691.135 479.457L691.125 479.463L691.114 479.468L611.663 519.358L609.196 520.597L606.728 519.358L527.244 479.468L527.233 479.463L527.221 479.457C526.206 478.941 525 478.939 523.973 479.459L523.966 479.464L523.957 479.468L444.509 519.358L442.041 520.598L439.572 519.358L360.128 479.471C359.007 478.909 357.645 478.962 356.558 479.634L356.547 479.642L356.535 479.648L356.346 479.772C355.427 480.422 354.838 481.518 354.838 482.735V765.273C354.838 767.302 356.468 768.933 358.498 768.933ZM529.442 977.623H613.155C615.147 977.623 616.813 975.959 616.813 973.964C616.813 971.935 615.181 970.305 613.155 970.305H529.442C527.413 970.305 525.785 971.933 525.785 973.964C525.785 975.995 527.413 977.623 529.442 977.623ZM715.99 977.623H769.065C771.06 977.623 772.723 975.961 772.723 973.964C772.723 971.933 771.094 970.305 769.065 970.305H715.99C713.957 970.305 712.327 971.937 712.327 973.964C712.327 975.99 713.957 977.623 715.99 977.623Z" fill="#10355B" stroke="#10355B" stroke-width="11"/>
<path d="M613.118 1011.37H715.992C718.009 1011.39 719.628 1009.76 719.615 1007.75V737.457C719.615 735.429 717.983 733.798 715.956 733.798H613.118C611.089 733.798 609.46 735.427 609.46 737.457V1007.71C609.46 1009.74 611.09 1011.37 613.118 1011.37ZM616.814 741.147H712.293V1004.05H616.814V741.147Z" fill="#10355B" stroke="#10355B" stroke-width="11"/>
</svg>
