<svg width="439" height="626" viewBox="0 0 439 626" fill="none" xmlns="http://www.w3.org/2000/svg">
<path d="M347.678 427.978L287.321 420.377C284.023 420.015 281.523 417.235 281.511 413.919C281.553 406.662 281.564 397.335 281.564 387.944C312.071 370.988 334.377 342.359 343.358 308.631C363.062 306.224 378.19 290.012 379.231 270.189C380.272 250.365 366.925 232.656 347.583 228.198V150.334C378.391 130.264 388.777 89.9916 371.519 57.5236C354.261 25.0594 315.069 11.1413 281.199 25.4512C271.132 15.412 258.755 8.00354 245.153 3.87115L244.598 3.70215C242.271 2.99933 239.904 2.40405 237.499 1.91632C237.04 1.81647 236.581 1.71277 236.116 1.62061C233.94 1.20581 231.727 0.883179 229.498 0.6297C228.918 0.564453 228.347 0.464539 227.766 0.406921C225.035 0.153442 222.284 -0.00012207 219.5 -0.00012207C216.717 -0.00012207 213.96 0.153442 211.235 0.406921C210.654 0.464539 210.084 0.564453 209.508 0.6297C207.274 0.883179 205.06 1.20581 202.88 1.62061C202.419 1.71277 201.965 1.81647 201.507 1.91632C199.098 2.41559 196.73 3.01086 194.402 3.70215L193.842 3.87115C180.242 8.00354 167.864 15.4158 157.801 25.455C123.937 11.172 84.7696 25.0941 67.5178 57.5467C50.2672 89.9993 60.6386 130.256 91.4229 150.334V228.198C72.08 232.656 58.733 250.365 59.7749 270.189C60.8161 290.012 75.9448 306.224 95.6483 308.631C104.631 342.354 126.936 370.977 157.442 387.928C157.442 397.314 157.442 406.635 157.495 413.845C157.506 417.18 155.001 419.99 151.685 420.361L91.3281 427.978C39.183 434.603 0.075115 478.931 0 531.496V616.618C0 621.722 4.1385 625.86 9.24267 625.86H429.756C434.86 625.86 439 621.722 439 616.618V531.48C438.919 478.923 399.815 434.605 347.678 427.978ZM109.909 197.174H329.092V210.381H109.909V197.174ZM360.781 268.037C360.77 277.063 355.304 285.187 346.949 288.599C347.355 284.437 347.577 280.222 347.577 275.959V247.635C355.599 251.257 360.763 259.235 360.781 268.037ZM77.6911 90.8596C77.5985 74.1801 85.4762 58.4645 98.8913 48.5559C112.307 38.6473 129.647 35.7438 145.559 40.7404C140.422 48.9362 136.674 57.923 134.467 67.3401C133.908 69.725 134.318 72.2368 135.61 74.3222C136.902 76.4076 138.967 77.8901 141.355 78.4507C146.325 79.6183 151.301 76.5344 152.467 71.5647C154.925 61.0876 159.81 51.3326 166.727 43.087C166.833 42.9756 166.976 42.918 167.076 42.8028C176.687 31.4731 189.704 23.5578 204.183 20.2396L205.24 20.0129C207.131 19.6097 209.042 19.3102 210.971 19.0644C211.499 19.0029 212.027 18.9184 212.556 18.8646C217.194 18.3577 221.874 18.3577 226.514 18.8646C227.042 18.9184 227.57 19.0029 228.067 19.0644C230 19.3102 231.923 19.5944 233.819 20.0168L234.833 20.2357C249.317 23.5463 262.343 31.454 271.962 42.7798C272.062 42.9026 272.21 42.9602 272.32 43.0754H272.321C279.238 51.3173 284.123 61.0684 286.582 71.5416H286.58C287.561 75.7125 291.276 78.6658 295.559 78.6774H295.56C296.27 78.6774 296.979 78.5967 297.673 78.4354H297.671C302.621 77.2525 305.688 72.3021 304.537 67.3439H304.539C302.333 57.9269 298.583 48.9362 293.442 40.7404C319.202 32.8212 346.775 45.7062 357.221 70.5508C367.668 95.3953 357.59 124.115 333.908 136.981C330.939 138.601 329.092 141.716 329.092 145.1V178.689H109.909V145.1C109.909 141.716 108.061 138.601 105.092 136.981C88.2026 127.783 77.6922 110.089 77.6911 90.8596ZM78.2195 268.037C78.2395 259.237 83.4023 251.261 91.4229 247.64V275.959C91.4229 280.185 91.6403 284.41 92.0466 288.54C83.7311 285.112 78.2817 277.031 78.2195 268.037ZM109.909 275.959V228.866H329.092V275.959C329.092 336.486 280.026 385.551 219.5 385.551C158.974 385.551 109.909 336.486 109.909 275.959ZM219.5 404.036C234.357 404.042 249.102 401.451 263.068 396.378C263.068 402.716 263.068 408.79 263.02 413.845C263.04 420.374 265.626 426.633 270.219 431.274L219.5 454.365L168.797 431.268C173.386 426.612 175.964 420.343 175.98 413.807C175.949 408.785 175.938 402.716 175.933 396.378C189.898 401.451 204.643 404.042 219.5 404.036ZM18.4855 531.48C18.5558 488.233 50.7346 451.768 93.6355 446.32L143.446 440.046L197.191 464.51L181.437 471.693H181.435C166.851 478.356 157.486 492.908 157.463 508.944V607.375H18.4855V531.48ZM420.515 607.375H175.949V508.944C175.959 500.15 181.095 492.167 189.095 488.515L295.554 440.046L345.369 446.32C388.27 451.771 420.446 488.235 420.515 531.48V607.375Z" fill="#10355B"/>
<path d="M59.4701 474.387C52.2567 480.063 46.1816 487.051 41.5657 494.985C40.3299 497.102 39.9858 499.623 40.6102 501.994C41.2345 504.365 42.7744 506.389 44.893 507.624C46.3015 508.452 47.906 508.889 49.5408 508.886C52.8317 508.889 55.8763 507.14 57.5312 504.296C60.9865 498.377 65.525 493.161 70.9099 488.921C74.9237 485.762 75.6163 479.947 72.4578 475.935C69.2985 471.921 63.484 471.227 59.4701 474.387Z" fill="#10355B"/>
<path d="M219.501 505.267C214.396 505.267 210.258 509.404 210.258 514.51V525.073C210.258 530.177 214.396 534.315 219.501 534.315C224.605 534.315 228.743 530.177 228.743 525.073V514.51C228.743 509.404 224.605 505.267 219.501 505.267Z" fill="#10355B"/>
<path d="M219.501 558.082C214.396 558.082 210.258 562.219 210.258 567.324V577.887C210.258 582.992 214.396 587.13 219.501 587.13C224.605 587.13 228.743 582.992 228.743 577.887V567.324C228.743 562.219 224.605 558.082 219.501 558.082Z" fill="#10355B"/>
</svg>
