<svg width="439" height="626" viewBox="0 0 439 626" fill="none" xmlns="http://www.w3.org/2000/svg">
<path d="M347.678 427.978L287.321 420.377C284.023 420.014 281.523 417.235 281.511 413.918C281.553 406.661 281.564 397.334 281.564 387.944C312.071 370.988 334.377 342.358 343.358 308.631C363.062 306.223 378.19 290.012 379.231 270.188C380.272 250.365 366.925 232.656 347.583 228.197V150.334C378.391 130.263 388.777 89.9911 371.519 57.5231C354.261 25.059 315.069 11.1408 281.199 25.4507C271.132 15.4115 258.755 8.00307 245.153 3.87064L244.598 3.70168C242.271 2.99886 239.904 2.40357 237.499 1.91582C237.04 1.81597 236.581 1.71227 236.116 1.62009C233.94 1.20532 231.727 0.882717 229.498 0.62924C228.918 0.563951 228.347 0.464067 227.766 0.406459C225.035 0.152982 222.284 -0.000624701 219.5 -0.000624701C216.717 -0.000624701 213.96 0.152982 211.235 0.406459C210.654 0.464067 210.084 0.563951 209.508 0.62924C207.274 0.882717 205.06 1.20532 202.88 1.62009C202.419 1.71227 201.965 1.81597 201.507 1.91582C199.098 2.4151 196.73 3.01038 194.402 3.70168L193.842 3.87064C180.242 8.00307 167.864 15.4153 157.801 25.4545C123.937 11.1715 84.7696 25.0935 67.5178 57.5462C50.2672 89.9988 60.6386 130.255 91.4229 150.334V228.197C72.08 232.656 58.733 250.365 59.7749 270.188C60.8161 290.012 75.9448 306.223 95.6483 308.631C104.631 342.354 126.936 370.977 157.442 387.927C157.442 397.313 157.442 406.634 157.495 413.844C157.506 417.18 155.001 419.99 151.685 420.361L91.3281 427.978C39.183 434.603 0.075115 478.93 0 531.496V616.617C0 621.721 4.1385 625.86 9.24267 625.86H429.756C434.86 625.86 439 621.721 439 616.617V531.479C438.919 478.922 399.815 434.604 347.678 427.978ZM109.909 197.173H329.092V210.381H109.909V197.173ZM360.781 268.037C360.77 277.062 355.304 285.186 346.949 288.598C347.355 284.436 347.577 280.222 347.577 275.959V247.635C355.599 251.257 360.763 259.234 360.781 268.037ZM77.6911 90.8591C77.5985 74.1796 85.4762 58.464 98.8913 48.5554C112.307 38.6468 129.647 35.7434 145.559 40.7399C140.422 48.9356 136.674 57.9226 134.467 67.3396C133.908 69.7246 134.318 72.2363 135.61 74.3217C136.902 76.4071 138.967 77.8896 141.355 78.4503C146.325 79.6178 151.301 76.5339 152.467 71.5642C154.925 61.0872 159.81 51.3322 166.727 43.0865C166.833 42.9751 166.976 42.9175 167.076 42.8023C176.687 31.4727 189.704 23.5573 204.183 20.2391L205.24 20.0125C207.131 19.6092 209.042 19.3097 210.971 19.0639C211.499 19.0024 212.027 18.9179 212.556 18.8642C217.194 18.3572 221.875 18.3572 226.514 18.8642C227.042 18.9179 227.57 19.0024 228.067 19.0639C230 19.3097 231.923 19.5939 233.819 20.0163L234.833 20.2352C249.317 23.5458 262.343 31.4535 271.962 42.7793C272.062 42.9022 272.21 42.9597 272.32 43.075H272.321C279.238 51.3168 284.123 61.0679 286.582 71.5411H286.58C287.561 75.712 291.276 78.6653 295.559 78.6769H295.56C296.27 78.6769 296.979 78.5962 297.673 78.4349H297.671C302.621 77.252 305.688 72.3016 304.537 67.3434H304.539C302.333 57.9264 298.583 48.9356 293.442 40.7399C319.202 32.8207 346.775 45.7058 357.221 70.5503C367.668 95.3948 357.59 124.114 333.908 136.98C330.939 138.601 329.092 141.716 329.092 145.099V178.689H109.909V145.099C109.909 141.716 108.061 138.601 105.092 136.98C88.2026 127.782 77.6922 110.089 77.6911 90.8591ZM78.2195 268.037C78.2395 259.236 83.4023 251.26 91.4229 247.639V275.959C91.4229 280.184 91.6403 284.409 92.0466 288.539C83.7311 285.111 78.2817 277.03 78.2195 268.037ZM109.909 275.959V228.865H329.092V275.959C329.092 336.485 280.026 385.551 219.5 385.551C158.974 385.551 109.909 336.485 109.909 275.959ZM219.5 404.036C234.357 404.042 249.102 401.45 263.068 396.377C263.068 402.716 263.068 408.789 263.02 413.844C263.04 420.374 265.626 426.633 270.219 431.274L219.5 454.364L168.797 431.267C173.386 426.611 175.964 420.343 175.98 413.807C175.949 408.784 175.938 402.716 175.933 396.377C189.898 401.45 204.643 404.042 219.5 404.036ZM18.4855 531.479C18.5558 488.233 50.7346 451.768 93.6355 446.32L143.446 440.045L197.191 464.509L181.437 471.692H181.435C166.851 478.355 157.486 492.907 157.463 508.943V607.374H18.4855V531.479ZM420.515 607.374H175.949V508.943C175.959 500.149 181.095 492.167 189.095 488.515L295.554 440.045L345.369 446.32C388.27 451.77 420.446 488.235 420.515 531.479V607.374Z" fill="#EBB133"/>
<path d="M59.4711 474.386C52.2576 480.062 46.1826 487.05 41.5666 494.984C40.3308 497.101 39.9868 499.622 40.6112 501.993C41.2355 504.364 42.7754 506.389 44.8939 507.623C46.3025 508.452 47.907 508.889 49.5418 508.885C52.8327 508.889 55.8773 507.14 57.5322 504.296C60.9875 498.376 65.526 493.16 70.9108 488.921C74.9247 485.761 75.6173 479.947 72.4588 475.934C69.2995 471.92 63.4849 471.227 59.4711 474.386Z" fill="#EBB133"/>
<path d="M219.501 505.267C214.396 505.267 210.258 509.404 210.258 514.509V525.072C210.258 530.177 214.396 534.315 219.501 534.315C224.605 534.315 228.743 530.177 228.743 525.072V514.509C228.743 509.404 224.605 505.267 219.501 505.267Z" fill="#EBB133"/>
<path d="M219.501 558.081C214.396 558.081 210.258 562.218 210.258 567.324V577.887C210.258 582.991 214.396 587.129 219.501 587.129C224.605 587.129 228.743 582.991 228.743 577.887V567.324C228.743 562.218 224.605 558.081 219.501 558.081Z" fill="#EBB133"/>
</svg>
