<svg width="910" height="885" viewBox="0 0 910 885" fill="none" xmlns="http://www.w3.org/2000/svg">
<ellipse cx="454.658" cy="442.5" rx="454.658" ry="442.5" fill="#E1AD5F" fill-opacity="0.5"/>
<path d="M717.625 611.832C716.141 620.784 712.271 623.314 703.071 622.004C697.88 621.255 693.523 618.749 689.282 616.002C669.908 603.504 652.133 588.995 634.59 574.219C596.121 541.797 561.313 505.723 526.273 469.928C523.005 466.61 493.18 435.038 491.395 433.029C458.626 396.472 422.451 362.852 392.811 323.615C362.73 283.788 338.05 241.128 320.622 194.611C318.467 188.819 316.196 182.995 315.779 176.741C315.2 167.674 317.308 165.673 326.462 166.377C335.06 167.036 343.31 169.268 351.63 171.346C422.637 189.085 486.343 221.329 542.727 266.329C642.956 344.776 707.103 462.796 717.717 587.761C718.343 595.773 718.969 603.847 717.625 611.832ZM669.816 687.934C658.414 689.409 646.919 688.161 635.587 687.004C613.478 684.767 591.509 681.562 569.679 677.392C440.087 650.867 333.415 557.233 266.95 448.479C238.307 400.096 216.152 348.509 207.786 293.069C207.16 289.454 206.975 285.64 207.369 281.995C208.435 272.233 214.924 267.991 224.634 270.749C255.34 279.451 283.706 293.033 310.959 309.196C363.657 340.816 469.449 443.277 470.26 444.193C529.285 509.169 590.188 573.202 660.036 627.358C670.627 635.584 681.658 644.166 687.498 656.411C694.566 671.34 686.64 685.746 669.816 687.934ZM738.528 544.797C705.226 349.035 539.158 184.955 340.066 144.844C333.832 143.709 327.598 142.365 321.225 142.399C304.076 142.485 292.488 153.065 291.307 169.758C290.681 181.222 294.343 192.448 297.935 203.236C310.634 238.798 329.313 271.385 350.216 302.86C351.444 304.712 353.345 306.397 353.461 309.271C349.034 308.423 346.485 306.011 343.797 303.959C311.978 279.595 275.872 263.069 238.399 249.049C233.394 247.175 228.087 245.858 222.826 244.852C208.713 242.163 194.507 248.625 186.929 260.586C180.394 270.921 179.582 282.209 181.228 293.73C191.077 359.067 219.026 420.484 255.224 475.982C268.526 495.97 281.55 516.048 297.772 534.002C367.388 612.849 453.922 676.895 559.876 699.631C593.432 707.159 627.29 711.76 661.774 711.991C674.172 712.067 685.62 709.446 695.979 702.531C715.84 690.146 716.744 667.08 707.265 647.829C708.888 645.921 710.464 645.668 711.993 645.246C734.658 638.8 742.514 628.705 742.977 605.753C743.418 585.296 741.888 564.951 738.528 544.797Z" fill="#10355B"/>
<path d="M418.371 427.176C414.028 442.612 403.415 456.077 392.082 467.393C385.769 473.624 379.626 472.467 375.326 464.889C373.229 461.188 372.657 457.196 373.674 453.24C377.211 439.268 384.922 427.888 397.124 419.628C406.254 413.839 418.858 412.868 418.371 427.176Z" fill="#10355B"/>
<path d="M616.069 443.677C611.746 459.111 601.108 472.565 589.798 483.893C583.482 490.124 577.323 488.967 573.023 481.388C570.94 477.689 570.358 473.696 571.366 469.742C574.927 455.754 582.631 444.387 594.837 436.122C603.952 430.337 616.561 429.371 616.069 443.677Z" fill="#10355B"/>
<path d="M281.168 388.941C281.703 379.764 285.035 370.631 291.412 362.627C299.475 351.434 318.789 358.203 313.153 372.537C309.821 380.851 305.131 388.576 299.968 395.929C297.171 399.893 294.003 404.386 287.874 403.054C283.863 402.185 281.209 396.482 281.168 388.941Z" fill="#10355B"/>
<path d="M461.76 365.81C462.323 356.632 465.64 347.501 472.035 339.496C480.077 328.304 499.392 335.072 493.756 349.406C490.417 357.721 485.735 365.444 480.576 372.797C477.779 376.763 474.614 381.255 468.48 379.926C464.469 379.055 461.825 373.352 461.76 365.81Z" fill="#10355B"/>
<path d="M550.546 612.446C550.502 616.857 549.556 621.067 547.819 625.072C546.191 628.836 544.234 632.383 539.176 632.473C533.854 632.548 529.016 631.531 526.091 626.649C518.988 615.256 516.569 595.242 533.832 592.622C545.795 591.173 550.304 601.511 550.546 612.446Z" fill="#10355B"/>
<path d="M565.453 327.434C565.409 331.845 564.481 336.053 562.715 340.059C561.08 343.826 559.137 347.377 554.08 347.457C548.758 347.538 543.922 346.524 541.007 341.634C533.897 330.243 531.468 310.239 548.714 307.619C560.705 306.157 565.21 316.504 565.453 327.434Z" fill="#10355B"/>
<path d="M469.219 567.485C469.176 571.886 468.252 576.094 466.511 580.1C464.856 583.876 462.9 587.423 457.85 587.499C452.541 587.589 447.684 586.57 444.782 581.675C437.647 570.283 435.24 550.282 452.498 547.663C464.469 546.199 468.983 556.551 469.219 567.485Z" fill="#10355B"/>
<path d="M337.937 472.198C332.894 472.07 327.748 472.376 323.08 469.908C314.6 465.459 314.016 457.828 321.768 452.337C330.144 446.399 347.938 446.334 356.147 452.209C362.273 456.595 361.523 464.989 354.522 469.134C349.438 472.147 343.687 472.338 337.937 472.198Z" fill="#10355B"/>
<path d="M448.255 511.203C443.199 511.087 438.079 511.378 433.389 508.927C424.892 504.475 424.332 496.846 432.077 491.354C440.467 485.403 458.258 485.338 466.455 491.213C472.586 495.6 471.833 503.992 464.841 508.137C459.743 511.15 453.999 511.341 448.255 511.203Z" fill="#10355B"/>
<path d="M605.467 406.458C600.41 406.338 595.263 406.635 590.587 404.176C582.113 399.725 581.529 392.096 589.284 386.601C597.668 380.662 615.447 380.594 623.652 386.472C629.788 390.858 629.046 399.252 622.033 403.393C616.953 406.41 611.199 406.603 605.467 406.458Z" fill="#10355B"/>
<path d="M432.38 273.369C432.422 280.26 426.361 288.687 418.683 288.295C411.239 288.12 406.135 282.829 405.391 274.127C404.71 266.011 405.752 255.879 415.557 253.846C420.81 252.641 426.765 255.595 429.806 260.875C431.678 264.146 432.614 267.723 432.38 273.369Z" fill="#10355B"/>
<path d="M671.117 516.714C670.867 526.34 665.661 529.099 655.682 530.612C650.749 531.362 642.657 521.444 642.68 515.608C642.748 509.148 649.999 503.719 658.205 503.987C666.343 504.265 671.185 509.046 671.117 516.714Z" fill="#10355B"/>
<path d="M545.452 415.058C545.21 424.689 540.028 427.45 530.014 428.964C525.094 429.714 517.013 419.788 517.057 413.953C517.101 407.496 524.348 402.063 532.561 402.337C540.686 402.608 545.54 407.39 545.452 415.058Z" fill="#10355B"/>
</svg>
