<svg width="910" height="885" viewBox="0 0 910 885" fill="none" xmlns="http://www.w3.org/2000/svg">
<ellipse cx="454.658" cy="442.5" rx="454.658" ry="442.5" fill="#E1AD5F" fill-opacity="0.5"/>
<path d="M685.521 609.463C684.18 617.555 680.682 619.842 672.366 618.658C667.674 617.981 663.735 615.716 659.902 613.233C642.39 601.936 626.323 588.821 610.465 575.465C575.692 546.157 544.228 513.549 512.555 481.194C509.601 478.195 482.641 449.656 481.028 447.84C451.408 414.795 418.708 384.405 391.916 348.939C364.726 312.938 342.416 274.377 326.664 232.33C324.715 227.094 322.663 221.83 322.286 216.176C321.762 207.981 323.668 206.172 331.942 206.808C339.714 207.404 347.172 209.422 354.692 211.3C418.876 227.335 476.462 256.481 527.428 297.156C618.027 368.067 676.011 474.747 685.605 587.705C686.17 594.947 686.736 602.246 685.521 609.463ZM642.306 678.253C631.999 679.586 621.609 678.459 611.366 677.413C591.382 675.391 571.523 672.494 551.79 668.724C434.65 644.748 338.227 560.111 278.148 461.805C252.257 418.072 232.231 371.441 224.669 321.328C224.103 318.06 223.935 314.612 224.292 311.318C225.255 302.494 231.121 298.659 239.898 301.152C267.654 309.018 293.294 321.295 317.928 335.905C365.564 364.487 461.191 457.104 461.924 457.932C515.278 516.664 570.329 574.545 633.466 623.498C643.039 630.933 653.01 638.691 658.289 649.759C664.678 663.254 657.514 676.275 642.306 678.253ZM704.416 548.869C674.314 371.916 524.202 223.602 344.239 187.344C338.604 186.319 332.969 185.104 327.208 185.134C311.707 185.212 301.233 194.776 300.165 209.864C299.599 220.227 302.909 230.374 306.156 240.126C317.635 272.271 334.519 301.727 353.414 330.178C354.524 331.852 356.242 333.375 356.347 335.973C352.346 335.206 350.041 333.026 347.611 331.171C318.85 309.148 286.213 294.21 252.341 281.537C247.816 279.843 243.019 278.652 238.264 277.743C225.506 275.313 212.665 281.154 205.816 291.966C199.908 301.307 199.175 311.511 200.662 321.925C209.565 380.984 234.828 436.5 267.549 486.666C279.573 504.734 291.346 522.883 306.009 539.111C368.936 610.383 447.156 668.275 542.929 688.826C573.262 695.632 603.866 699.791 635.037 699.999C646.244 700.068 656.592 697.699 665.956 691.448C683.908 680.253 684.725 659.403 676.157 642.002C677.624 640.277 679.048 640.049 680.431 639.667C700.918 633.841 708.019 624.715 708.438 603.969C708.836 585.477 707.454 567.087 704.416 548.869Z" fill="#10355B"/>
<path d="M415.02 442.55C411.095 456.503 401.502 468.674 391.257 478.903C385.551 484.535 379.998 483.489 376.111 476.639C374.216 473.294 373.699 469.686 374.618 466.109C377.816 453.48 384.785 443.193 395.815 435.727C404.068 430.494 415.461 429.616 415.02 442.55Z" fill="#10355B"/>
<path d="M593.722 457.465C589.815 471.416 580.199 483.577 569.976 493.817C564.267 499.45 558.699 498.404 554.813 491.553C552.93 488.209 552.404 484.6 553.315 481.025C556.533 468.382 563.497 458.107 574.531 450.636C582.77 445.406 594.168 444.534 593.722 457.465Z" fill="#10355B"/>
<path d="M291 407.988C291.483 399.693 294.496 391.438 300.259 384.203C307.548 374.085 325.007 380.204 319.912 393.16C316.9 400.676 312.661 407.659 307.994 414.305C305.465 417.888 302.602 421.949 297.061 420.746C293.436 419.96 291.037 414.805 291 407.988Z" fill="#10355B"/>
<path d="M454.24 387.079C454.75 378.784 457.748 370.53 463.528 363.294C470.798 353.177 488.256 359.295 483.162 372.252C480.144 379.768 475.912 386.749 471.248 393.396C468.721 396.981 465.86 401.041 460.315 399.839C456.69 399.052 454.299 393.897 454.24 387.079Z" fill="#10355B"/>
<path d="M534.496 610.018C534.456 614.006 533.601 617.811 532.031 621.431C530.56 624.834 528.791 628.04 524.219 628.121C519.408 628.189 515.035 627.27 512.391 622.857C505.97 612.559 503.784 594.468 519.388 592.099C530.202 590.79 534.277 600.134 534.496 610.018Z" fill="#10355B"/>
<path d="M547.971 352.391C547.931 356.378 547.093 360.182 545.496 363.803C544.019 367.208 542.262 370.418 537.691 370.49C532.881 370.563 528.509 369.647 525.874 365.227C519.447 354.93 517.251 336.848 532.841 334.479C543.679 333.158 547.751 342.511 547.971 352.391Z" fill="#10355B"/>
<path d="M460.982 569.377C460.943 573.355 460.108 577.159 458.534 580.78C457.039 584.193 455.271 587.4 450.705 587.468C445.907 587.549 441.516 586.628 438.893 582.204C432.444 571.907 430.268 553.827 445.868 551.46C456.689 550.136 460.769 559.494 460.982 569.377Z" fill="#10355B"/>
<path d="M342.314 483.246C337.756 483.13 333.104 483.407 328.886 481.176C321.22 477.154 320.693 470.257 327.699 465.293C335.27 459.925 351.355 459.867 358.775 465.177C364.313 469.142 363.635 476.729 357.306 480.476C352.711 483.2 347.513 483.372 342.314 483.246Z" fill="#10355B"/>
<path d="M442.033 518.503C437.463 518.399 432.835 518.662 428.595 516.446C420.914 512.422 420.409 505.525 427.409 500.561C434.993 495.182 451.075 495.124 458.484 500.434C464.026 504.399 463.345 511.985 457.025 515.732C452.417 518.456 447.225 518.628 442.033 518.503Z" fill="#10355B"/>
<path d="M584.14 423.822C579.569 423.714 574.916 423.982 570.69 421.76C563.03 417.736 562.502 410.84 569.511 405.873C577.09 400.504 593.161 400.443 600.577 405.756C606.124 409.721 605.454 417.309 599.114 421.052C594.523 423.779 589.321 423.953 584.14 423.822Z" fill="#10355B"/>
<path d="M427.683 303.521C427.721 309.749 422.242 317.366 415.302 317.013C408.574 316.854 403.96 312.071 403.287 304.205C402.672 296.869 403.614 287.71 412.476 285.873C417.225 284.784 422.607 287.454 425.356 292.227C427.048 295.183 427.894 298.417 427.683 303.521Z" fill="#10355B"/>
<path d="M643.482 523.485C643.256 532.186 638.551 534.679 629.53 536.047C625.072 536.725 617.757 527.76 617.777 522.485C617.839 516.645 624.394 511.738 631.811 511.98C639.167 512.232 643.544 516.553 643.482 523.485Z" fill="#10355B"/>
<path d="M529.89 431.596C529.672 440.301 524.987 442.797 515.936 444.165C511.489 444.843 504.184 435.871 504.224 430.597C504.263 424.761 510.814 419.85 518.238 420.097C525.583 420.342 529.97 424.664 529.89 431.596Z" fill="#10355B"/>
</svg>
