<svg width="965" height="965" viewBox="0 0 965 965" fill="none" xmlns="http://www.w3.org/2000/svg">
<circle cx="482.5" cy="482.5" r="482.5" fill="#F7E6DC"/>
<path d="M535.81 229.406C536.076 210.736 534.387 198.953 530.343 192.36C499.343 192.36 467.945 192.36 435.503 192.36C434.971 204.859 434.838 216.816 435.806 229.406C469.71 229.406 502.457 229.406 535.81 229.406ZM344.762 658.586C344.535 678.955 342.712 699.687 345.427 720.168C349.964 754.475 380.812 774.341 404.085 773.714C456.897 773.141 509.784 774.466 562.634 773.071C593.197 772.862 616.717 743.746 617.552 714.392C618.179 697.762 616.717 681.201 616.394 664.614C616.299 659.661 611.554 655.057 607.131 656.312C597.316 659.103 587.559 656.982 577.839 656.996C502.95 657.053 428.061 656.857 353.191 656.774C350.875 656.774 348.445 656.312 344.762 658.586ZM345.484 443.597C436.509 443.202 526.508 444.09 617.875 444.726C617.856 427.322 619.166 411.384 616.869 395.573C610.566 349.024 575.391 319.763 529.565 314.797C520.282 312.705 518.194 310.349 518.175 301.04C518.137 289.169 518.403 277.297 518.384 265.429C518.384 262.517 519.371 259.282 515.859 256.005C495.186 256.061 473.716 255.024 452.398 256.023C451.866 258.139 451.391 259.111 451.429 260.062C451.847 270.562 451.676 281.139 452.967 291.529C454.79 305.918 446.038 315.712 432.086 317.21C369.099 322.925 337.511 387.138 345.484 443.597ZM617.021 471.54C602.992 469.706 354.463 470.149 347.553 471.96C344.288 481.115 343.851 495.216 346.793 505.442C373.427 506.796 400.44 504.785 426.903 506.46C433.927 520.9 433.718 522.058 425.46 528.91C422.233 531.601 418.664 531.588 414.943 531.601C395.599 531.698 376.294 531.727 356.969 531.894C353.343 531.922 349.527 531.03 345.541 533.498C345.541 544.24 345.541 555.22 345.541 566.479C349.774 568.252 353.874 567.749 357.842 567.82C378.875 568.167 399.871 568.488 420.885 568.754C425.631 568.811 429.295 569.786 431.098 575.073C434.458 584.952 427.397 594.243 416.386 593.392C396.416 591.843 376.407 592.318 356.418 592.025C352.811 591.968 348.92 591.175 344.971 594.214C344.971 606.115 344.971 618.477 344.971 632.038C435.351 630.711 524.99 630.503 614.496 630.837C617.932 624.838 618.008 619.147 618.008 613.385C618.046 569.648 618.141 525.923 618.16 482.186C618.16 478.862 618.786 475.434 617.021 471.54ZM424.037 292.309C424.037 287.41 427.245 283.672 427.017 278.85C426.618 271.131 426.903 263.38 426.903 256.934C423.809 253.431 420.733 253.843 418.398 252.52C413.729 249.866 410.407 246.303 410.236 240.545C409.704 221.896 409.116 203.234 410.445 184.611C411.185 174.197 417.108 167.834 427.245 165.529C430.187 164.859 433.3 164.652 436.319 164.633C471.912 164.626 507.582 164.022 543.119 165.945C553.351 167.454 560.242 174.867 560.394 185.306C560.659 202.26 560.565 219.22 560.565 236.177C560.565 246.768 553.294 251.356 544.467 255.032C543.024 264.303 543.518 273.774 543.385 283.212C543.309 287.189 545.131 289.376 549.023 290.417C554.927 291.988 560.773 293.78 566.506 295.817C629.759 317.483 646.901 373.495 644.281 435.067C644.338 525.965 644.319 616.857 644.395 707.751C646.635 755.899 612.408 794.752 565.918 798.896C517.131 800.737 468.249 799.467 419.424 799.999C411.982 800.012 404.484 799.929 397.08 799.272C356.247 795.617 323.178 761.869 320.824 720.935C318.812 622.634 321.185 524.221 320.654 425.889C320.919 376.589 342.902 322.109 391.082 302.509C401.655 298.008 412.248 293.349 424.037 292.309Z" fill="#10355B"/>
</svg>
