<svg width="965" height="965" viewBox="0 0 965 965" fill="none" xmlns="http://www.w3.org/2000/svg">
<circle cx="482.5" cy="482.5" r="482.5" fill="#F7F4DC"/>
<path d="M718.657 308.48C714.424 304.827 710.206 303.093 706.104 301.307C649.305 276.787 592.316 252.707 535.605 227.987C527.998 224.667 521.662 225.493 514.546 229.48C428.829 275.907 340.162 316.867 254.472 363.347C252.652 364.4 250.149 365.053 250.125 367.933C251.792 370.253 254.47 370.667 256.77 371.693C311.82 396.173 368.798 416.16 422.833 443.013C436.057 448.92 447.686 454.88 460.537 443.6C542.918 400.613 626.029 358.72 708.473 315.8C711.75 313.88 715.406 312.413 718.657 308.48ZM439.76 475.013C368.012 447.987 299.652 415.587 230.565 385.347C228.141 389.133 228.704 392.133 228.693 394.973C228.424 474.413 228.304 553.853 227.82 633.28C227.772 641.147 229.534 646.4 237.601 648.427C302.774 676.44 368.142 704.187 433.398 732.053C435.394 732.907 437.361 734.427 440.889 732.493C439.621 647.293 439.898 561.52 439.76 475.013ZM465.77 727.92C472.441 727.32 476.506 724.48 480.806 722.387C564.133 679.76 646.024 634.347 729.59 592.133C735.73 588.973 737.704 585.227 737.686 578.573C737.484 498.213 737.548 417.867 737.476 337.52C737.474 335.08 738.377 332.36 735.257 329.253C646.266 378.08 553.85 421.08 464.885 471.453C465.142 557.027 464.362 642.093 465.77 727.92ZM762.428 451.507C762.428 499.16 762.218 546.813 762.616 594.467C762.689 603.293 759.416 607.56 751.669 611.373C684.248 644.627 616.545 677.32 551.01 714.28C519.581 731.707 486.633 746.4 455.436 764.333C451.757 766.373 448.501 766.6 444.492 764.68C415.856 750.92 385.977 740.053 356.905 727.293C309.136 706.32 261.388 685.307 213.476 664.68C205.865 661.4 202.934 657.187 203.001 648.72C203.742 555.36 204.154 462 204.422 368.64C204.44 362.613 206.6 359.347 211.64 356.427C227.926 347 244.474 338.08 261.514 330.147C302.382 311.147 341.273 288.253 382.193 269.333C420.148 251.787 457.134 232.28 493.845 212.267C501.805 207.92 510.198 204.36 518.105 199.933C523.14 197.12 527.386 197.347 532.632 199.627C603.046 229.44 672.898 260.56 743.662 289.573C761.153 296.893 761.237 296.893 761.258 315.36C761.308 360.747 761.274 406.12 761.274 451.507C761.658 451.507 762.042 451.507 762.428 451.507Z" fill="#10355B"/>
<path d="M639.734 418.52C649.372 418.093 661.694 417.826 657.959 431.226C655.779 439.346 652.031 442.493 643.687 442.96C632.343 442.986 618.559 446.133 618.856 430.693C618.834 423.76 624.063 418.8 632.004 418.346C634.572 418.2 637.156 418.32 639.734 418.32C639.734 418.386 639.734 418.453 639.734 418.52Z" fill="#10355B"/>
<path d="M513.946 633.307C503.29 633.36 498.684 626.747 502.711 617.88C507.155 606.987 524.331 593.987 534.282 604.84C537.783 609.293 536.97 614 534.47 618.494C529.8 626.894 523.007 632.4 513.946 633.307Z" fill="#10355B"/>
<path d="M564.932 489.227C567.909 489.413 571.792 489.4 575.581 489.987C583.982 491.24 582.017 500.053 579.14 505.573C574.198 514.267 554.988 517.827 547.088 511.707C542.801 508.387 540.524 501.88 542.009 497.027C544.821 488.133 557.062 489.733 564.932 489.227Z" fill="#10355B"/>
<path d="M683.928 476.654C683.486 487.334 666.182 499.427 655.732 496.387C652.212 495.361 650.31 493.041 649.859 489.467C648.859 481.547 652.538 475.721 658.351 470.947C663.976 466.347 670.342 464.547 677.402 466.987C681.854 468.521 684.13 471.827 683.928 476.654Z" fill="#10355B"/>
<path d="M609.476 591.587C603.435 591.64 599.799 589.974 597.69 585.76C591.051 572.707 610.833 554.147 622.965 562.747C628.911 566.48 630.479 571.654 626.614 577.574C622.174 584.374 616.879 590.48 609.476 591.587Z" fill="#10355B"/>
<path d="M377.075 555.121C385.557 556.401 397.935 555.907 404.875 562.627C408.95 566.801 409.396 572.601 406.768 578.881C404.523 584.254 400.285 584.641 395.557 584.067C387.845 583.134 380.11 582.027 372.88 579.081C364.787 575.787 362.404 570.561 364.903 562.947C367.045 556.427 369.219 554.934 377.075 555.121Z" fill="#10355B"/>
<path d="M353.181 491.747C345.448 489.72 337.175 490.307 329.78 486.534C321.995 482.547 319.063 476.401 321.976 469.241C324.049 464.134 327.737 461.414 333.265 462.027C342.288 463.041 350.927 465.841 359.012 469.894C369.217 475.187 366.499 493.614 353.181 491.747Z" fill="#10355B"/>
<path d="M287.918 538.614C292.579 538.534 297.709 539.281 302.464 541.547C316.666 547.561 309.013 569.587 294.448 565.574C291.194 564.721 288.147 564.574 284.919 564.801C275.334 565.481 268.481 553.387 273.335 543.267C275.09 539.614 279.095 538.521 287.918 538.614Z" fill="#10355B"/>
<path d="M348.191 632.16C354.431 632.173 360.391 633.48 365.841 636.52C371.517 639.68 373.261 644.107 371.707 650.36C370.278 656.133 367.062 658.747 360.343 658.533C355.214 658.387 350.018 657.813 345.017 656.693C336.979 654.893 333.849 650.16 335.037 642.813C336.354 634.653 339.547 632.08 348.191 632.16Z" fill="#10355B"/>
<path d="M384.154 358.279C375.649 357.866 365.352 360.92 364.653 349.16C364.134 342.8 367.573 336.906 373.846 334.813C382.92 331.786 392.262 332.533 401.54 334.013C403.501 334.319 405.086 335.373 406.078 337.239C410.938 346.346 405.185 356.919 394.77 357.746C391.253 358.026 387.694 357.786 384.154 357.786C384.154 357.946 384.154 358.106 384.154 358.279Z" fill="#10355B"/>
<path d="M498.499 356.973C493.916 356.706 489.72 356.64 485.572 356.146C481.075 355.626 478.799 352.8 478.692 348.28C478.616 342.24 479.944 332.613 487.746 332.68C495.158 332.626 502.575 332.293 509.98 332.48C515.796 332.613 520.9 337.8 521.447 343.467C521.97 348.893 518.348 354.36 512.523 355.613C507.84 356.613 502.936 356.586 498.499 356.973Z" fill="#10355B"/>
<path d="M607.743 328.961C596.649 329.347 587.545 328.867 587.059 316.547C586.675 308.334 590.021 304.561 598.941 303.361C604.385 302.641 609.868 302.747 615.309 303.334C622.549 304.12 626.339 307.76 626.793 314C627.276 320.614 622.897 326.854 616.291 328.24C612.863 328.96 609.259 328.841 607.743 328.961Z" fill="#10355B"/>
<path d="M455.447 428.599C450.604 428.279 446.385 428.293 442.265 427.679C436.453 426.786 434.624 424.533 434.104 418.706C433.547 412.466 435.189 408.293 439.948 406.759C450.792 403.239 461.569 405.093 472.188 408.253C473.844 408.746 474.613 410.199 475.012 411.866C476.968 419.986 470.76 428.333 462.509 428.586C459.936 428.666 457.36 428.599 455.447 428.599Z" fill="#10355B"/>
<path d="M507.191 262.787C508.951 263.107 512.758 263.747 516.543 264.481C520.733 265.307 523.631 267.334 523.778 272.121C523.918 276.641 522.967 280.401 518.314 282.374C513.159 284.561 507.965 285.934 502.355 284.294C494.703 282.081 491.207 277.094 492.475 270.121C493.51 264.414 496.577 262.627 507.191 262.787Z" fill="#10355B"/>
</svg>
