<svg width="965" height="965" viewBox="0 0 965 965" fill="none" xmlns="http://www.w3.org/2000/svg">
<circle cx="482.5" cy="482.5" r="482.5" fill="#CDF5F6"/>
<path d="M816.727 485.213C817.642 480.64 816.27 475.839 812.383 470.58C796.378 448.859 725.497 409.989 650.272 382.78C647.071 360.143 634.953 288.805 610.259 271.657C592.882 259.539 576.648 269.142 559.499 279.431C543.723 288.805 524.059 300.467 495.249 303.21C429.856 309.384 397.16 364.03 390.758 387.124C352.802 406.33 321.249 429.424 302.728 445.657C290.153 427.594 249.225 372.49 200.066 346.882C173.314 332.934 160.51 342.538 155.48 349.397C139.017 371.347 156.166 423.25 181.774 450.459C208.068 478.125 195.264 502.362 175.829 530.943L173.085 535.059C166.683 544.89 170.342 552.893 175.601 556.78C179.716 559.752 186.347 561.353 194.578 561.353C222.245 561.353 268.889 543.976 304.329 504.42C337.483 539.403 408.135 586.276 492.048 606.396C484.503 616.686 465.754 644.581 467.812 663.33C468.498 669.275 471.241 674.305 476.043 677.963C483.131 683.222 493.42 684.594 502.337 684.594C506.224 684.594 509.883 684.365 512.855 683.908C513.084 686.423 513.998 688.938 515.142 690.996C517.657 694.883 522.23 698.999 531.604 698.999C533.662 698.999 535.949 698.77 538.464 698.313C584.65 689.853 628.322 619.201 630.151 616.228C631.066 614.856 631.294 613.485 631.294 611.884C735.786 596.565 809.182 542.833 813.984 530.943C819.014 518.139 805.066 511.508 796.607 507.392C794.549 506.478 791.805 505.106 789.747 503.963C791.805 503.048 794.091 502.133 795.692 501.447C805.066 498.475 814.898 494.359 816.727 485.213ZM497.307 320.587C530.232 317.615 552.64 304.125 568.874 294.293C586.251 283.775 593.11 280.803 600.656 285.833C614.603 295.436 626.264 341.394 631.752 376.149C598.598 365.174 565.444 356.942 536.406 353.741C530.232 353.055 523.83 352.827 517.2 352.827C482.217 352.827 447.005 362.43 414.766 376.149C426.655 354.656 453.636 324.703 497.307 320.587ZM188.633 543.747L190.691 540.775C206.468 517.453 232.762 478.354 194.807 438.341C172.171 414.333 160.739 371.804 169.656 359.915C174 354.199 185.661 359.229 192.292 362.43C239.85 387.124 281.236 444.514 290.381 458.005C288.324 460.291 286.952 462.12 286.037 463.492C283.293 468.522 283.979 474.696 287.866 482.241C289.238 484.985 291.067 487.729 293.354 490.93C253.798 536.659 201.666 547.177 188.633 543.747ZM302.042 471.037C314.161 453.203 419.339 370.433 517.2 370.433C523.144 370.433 528.86 370.661 534.577 371.347C566.359 374.777 602.028 384.151 636.782 396.498C638.383 397.87 640.669 398.785 642.956 398.785C645.013 399.471 647.071 400.157 649.129 401.071C631.98 416.848 598.369 453.889 598.141 500.99C597.912 533.458 613.917 564.325 645.242 592.449C623.749 596.565 600.427 599.08 576.19 599.08C565.444 599.08 554.698 598.623 543.951 597.479C408.135 584.675 305.929 490.472 302.042 471.037ZM487.018 664.016C486.103 663.33 485.875 662.644 485.646 661.729C484.503 650.068 499.365 625.832 509.197 613.485C509.883 612.57 510.34 611.427 510.797 610.284C521.087 612.341 531.833 613.713 542.351 614.856C543.037 614.856 543.494 614.856 544.18 615.085C535.491 627.203 521.772 648.239 515.828 666.302C506.453 667.674 492.048 667.903 487.018 664.016ZM535.72 681.393C532.519 681.85 530.918 681.85 530.461 681.621C528.632 674.762 542.351 647.324 559.957 623.088C561.557 621.03 562.014 618.515 561.557 616.228C566.359 616.457 571.389 616.457 576.19 616.457C588.08 616.457 599.512 615.771 610.716 614.856C596.083 636.578 564.072 676.134 535.72 681.393ZM770.312 506.478C772.141 515.395 781.287 519.739 789.518 523.626C791.348 524.541 793.863 525.684 795.92 526.827C783.345 538.488 734.872 570.042 666.735 587.419C632.666 560.438 615.518 531.172 615.518 500.99C615.746 453.203 658.732 415.247 667.421 407.931C734.414 434.682 791.348 468.065 798.664 481.326C796.606 482.698 792.262 484.299 789.518 485.442C781.058 489.101 768.026 494.359 770.312 506.478Z" fill="#10355B"/>
<path d="M716.579 447.258C696.687 447.258 680.453 463.492 680.453 483.384C680.453 503.276 696.687 519.51 716.579 519.51C736.472 519.51 752.706 503.276 752.706 483.384C752.706 463.492 736.472 447.258 716.579 447.258ZM716.579 501.904C706.29 501.904 698.059 493.673 698.059 483.384C698.059 473.095 706.29 464.864 716.579 464.864C726.869 464.864 735.1 473.095 735.1 483.384C735.1 493.673 726.869 501.904 716.579 501.904Z" fill="#10355B"/>
</svg>
