<svg width="885" height="885" viewBox="0 0 885 885" fill="none" xmlns="http://www.w3.org/2000/svg">
<circle cx="442.5" cy="442.5" r="442.5" fill="#E4EDC7"/>
<path d="M574.269 152.35C520.246 145.255 477.553 164.459 455.951 214.864C452.632 222.306 451.336 230.478 451.689 238.759C452.023 246.092 452.946 247.196 460.094 246.86C524.507 244.024 556.32 211.845 574.269 152.35ZM445.17 311.286C396.468 309.442 340.067 331.802 320.999 379.677C316.934 390.474 312.653 401.184 308.647 412.009C301.204 432.065 290.207 449.647 274.359 464.269C243.292 494.033 229.84 539.589 233.944 581.669C237.852 667.856 320.017 760.939 411.667 728.984C434.035 721.163 457.011 721.442 479.929 727.378C486.174 728.984 492.379 730.702 498.663 732.168C513.431 735.59 528.356 736.456 542.967 731.931C604.453 715.089 638.643 653.652 649.679 594.616C658.123 548.681 644.573 499.366 612.131 465.414C594.87 447.176 581.162 426.869 572.973 402.958C551.784 342.987 510.073 309.707 445.17 311.286ZM427.947 284.498C429.479 265.477 424.962 247.865 417.304 230.994C401.004 193.733 368.582 161.009 326.89 155.255C316.993 153.803 312.633 148.413 312.908 139.684C313.203 130.758 318.623 125.772 328.481 126.318C338.359 126.876 347.883 129.321 356.956 133.441C386.119 146.64 410.764 165.005 426.592 193.606C427.24 194.752 427.81 196.078 430.206 196.4C433.014 194.25 434.762 190.52 436.981 187.308C470.326 136.037 528.651 114.964 587.918 125.745C599.936 127.687 602.725 131.736 602.509 143.747C602.43 147.504 601.92 151.15 600.741 154.752C593.888 175.8 585.483 196.092 573.563 214.891C543.654 261.425 505.969 271.706 453.26 271.649C451.199 275.741 451.297 279.29 452.455 282.809C455.617 285.154 459.152 284.47 462.471 284.694C499.528 287.151 531.321 301.718 558.343 326.873C583.342 350.629 590.706 385.25 607.065 414.424C613.879 426.604 621.754 437.945 631.573 448.041C711.048 527.802 682.985 669.531 598.306 734.683C577.569 750.436 554.121 759.724 528.042 761.707C513.274 762.825 499.017 759.347 484.799 756.023C475.53 753.858 466.261 751.889 456.795 750.772C442.087 749.04 427.77 750.311 413.454 754.235C371.861 767.433 336.16 763.467 299.594 739.542C209.514 684.962 179.056 558.653 235.535 469.577C242.487 458.627 250.931 448.879 259.748 439.453C273.416 424.83 283.353 408.056 289.775 389.133C292.171 382.065 294.939 375.125 297.532 368.114C312.947 326.537 365.518 291.915 409.311 288.689C414.692 288.227 420.033 287.011 425.375 286.063C425.983 285.965 426.494 285.391 427.947 284.498Z" fill="#10355B"/>
<path d="M340.896 661.493C332.743 660.301 324.606 656.843 317.208 651.602C268.45 617.417 251.65 546.694 289.048 498.229C293.98 491.206 299.75 489.213 305.241 491.822C312.704 495.36 315.301 504.124 310.353 511.148C298.879 527.814 289.18 547.453 293.141 568.128C298.303 600.018 315.055 626.353 346.683 638.042C354.064 640.544 356.464 644.592 354.853 652.112C353.324 659.266 349.461 662.044 340.896 661.493Z" fill="#10355B"/>
</svg>
