<svg width="574" height="607" viewBox="0 0 574 607" fill="none" xmlns="http://www.w3.org/2000/svg">
<path d="M297.507 165.58C296.549 192.432 295.358 223.046 318.204 241.45C346.71 266.191 395.495 247.2 405.908 215.492C411.362 198.891 409.57 181.781 408.772 164.979C398.497 163.129 304.707 163.53 297.507 165.58ZM162.981 163.499C162.981 176.848 162.921 189.735 163.003 202.637C163.052 210.282 165.529 217.296 169.557 223.693C185.216 248.51 204.756 253.181 230.403 249.312C246.821 246.846 258.691 237.689 266.934 223.261C277.653 204.502 272.253 184.263 274.348 163.499C236.562 163.499 200.145 163.499 162.981 163.499ZM141.743 162.559C103.248 163.438 66.2841 161.079 28.6973 163.854C28.6942 178.467 28.0437 191.646 29.898 204.856C34.359 239.046 68.4544 261.628 101.381 250.206C121.254 242.776 132.67 227.824 137.741 207.878C141.35 193.681 140.047 178.975 141.743 162.559ZM545.741 161.881C507.459 162.821 470.691 162.574 433.119 163.746C432.862 180.255 431.792 195.392 433.878 210.514C434.183 212.718 435.061 214.891 435.835 217.018C441.397 232.31 463.746 253.258 489.29 253.088C510.318 252.95 531.253 238.753 539.413 217.651C546.205 200.093 545.766 181.642 545.741 161.881ZM47.2363 135.429C51.2595 137.526 54.8788 136.693 58.3533 136.693C213.846 136.508 369.34 136.786 524.833 136.262C527.487 136.231 530.627 137.248 532.523 134.458C532.572 132.346 531.336 131.175 530.42 129.88C508.456 99.0048 486.514 68.1141 463.879 37.7167C458.478 30.4564 452.728 27.5276 443.689 27.5585C340.674 27.9284 237.658 27.9747 134.644 27.8668C128.348 27.8668 124.438 29.9323 121.03 34.9883C99.6535 66.7268 75.3046 96.2302 52.2383 126.705C50.3239 129.233 47.819 131.483 47.2363 135.429ZM98.4511 580.092C101.617 582.204 103.949 581.711 106.171 581.711C224.18 582.204 342.189 582.435 460.201 582.266C471.656 582.25 472.13 581.819 472.232 572.246C473.256 476.599 473.598 380.967 473.088 285.32C473.072 282.515 473.827 279.416 470.749 276.626C450.912 269.058 433.856 256.68 420.957 236.842C387.558 288.974 319.835 288.08 285.078 238.106C254.514 287.124 183.66 288.403 150.745 241.127C135.662 257.759 119.493 271 98.4511 277.228C98.4511 378.686 98.4511 479.42 98.4511 580.092ZM497.37 278.307C498.011 379.38 496.488 479.744 499.072 579.599C503.631 582.035 507.26 581.433 510.748 581.48C526.958 581.742 543.173 581.773 559.38 582.127C571.073 582.374 575.873 590.266 571.389 601.195C570.238 604 568.046 605.156 565.405 605.418C561.544 605.819 557.644 605.927 553.759 605.973C374.787 607.176 195.808 606.39 16.8358 606.482C10.1921 606.035 4.63656 608.44 1.6819 599.777C-2.70723 586.906 1.41415 581.017 14.9876 581.773C32.1702 582.728 49.3481 581.865 66.5245 582.112C68.3989 582.127 70.278 581.711 73.4009 581.372C73.4626 479.96 72.0907 378.948 74.6233 278.738C73.2884 276.364 71.7331 275.917 70.0976 275.779C32.9748 273.312 4.42984 236.58 4.14853 201.003C4.13558 184.139 4.01165 167.291 3.61935 150.428C3.51268 145.834 5.06215 142.474 7.92617 139.083C44.343 97.2167 76.0784 51.6976 110.821 8.49066C114.747 3.24969 119.091 1.38458 125.57 1.43079C236.132 1.76996 346.701 1.3537 457.261 0.860474C464.429 0.814209 468.687 3.00311 473.259 8.78357C500.249 42.8497 524.598 78.8735 551.369 113.094C571.32 138.589 571.122 138.759 570.735 171.515C570.635 179.947 570.1 188.378 570.282 196.795C571.169 238.09 537.93 267.47 508.852 275.147C505.424 276.056 502.013 277.027 497.37 278.307Z" fill="#EBB133"/>
<path d="M142.85 412.797C136.891 403.97 139.247 390.81 151.58 390.383C237.415 390.157 323.264 390.33 409.104 390.29C419.003 390.85 441.951 384.637 442.206 399.557C442.28 406.077 437.55 412.597 432.279 413.17C339.651 413.41 246.991 413.677 154.352 413.877C150.527 413.89 146.574 414.583 142.85 412.797Z" fill="#EBB133"/>
<path d="M156.808 484.517C156.492 494.57 166.147 504.197 176.627 504.29C186.076 504.37 195.199 494.97 195.776 484.557C196.331 474.557 187.368 465.437 176.843 465.29C165.571 465.13 157.163 473.21 156.808 484.517ZM177.266 441.663C201.478 441.423 219.844 460.01 220.05 484.97C220.242 508.197 199.412 528.65 175.779 528.823C154.916 528.983 131.491 514.877 131.787 485.85C132.047 460.303 150.652 441.93 177.266 441.663Z" fill="#EBB133"/>
</svg>
