<svg width="965" height="965" viewBox="0 0 965 965" fill="none" xmlns="http://www.w3.org/2000/svg">
<circle cx="482.5" cy="482.5" r="482.5" fill="#F9D8D6"/>
<path d="M735.103 393.421V388.579C735.103 386.263 734.472 383.947 733.208 382.052C723.314 337.631 686.682 306.263 629.209 294.053C587.735 285.211 552.578 281 521.841 281C436.368 281 403.105 315.737 373.842 346.473C364.999 355.737 356.578 364.368 347.105 372.158C327.105 388.368 306.684 393.842 288.789 398.473C260.579 405.842 231.526 413.42 229 463.526C229 463.736 229 463.736 229 463.947V464.157V594.893C229 599.314 231.316 603.314 235.105 605.42C241.211 608.788 377.21 683.525 504.157 683.525C511.946 683.525 519.946 683.314 527.736 682.683C662.472 671.946 730.051 581.841 732.787 577.841C734.261 575.736 735.103 573.209 735.103 570.683V421.842C735.524 417.842 735.945 414.052 735.945 410.052C736.156 404.578 735.735 398.894 735.103 393.421ZM294.895 422.052C314.263 416.999 338.263 410.684 362.263 391.105C372.999 382.473 382.263 372.579 391.315 363.315C419.736 333.421 446.683 305.21 521.841 305.21C550.472 305.21 584.788 309.421 624.156 317.842C687.103 331.105 706.893 364.368 711.103 394.473V421.42C703.103 485.631 642.683 552.157 579.946 562.683C564.578 565.209 547.104 566.473 528.157 566.473C427.105 566.473 304.158 530.262 265 488.999C257 480.578 253 472.578 253.421 464.999V464.578C254.895 432.578 267.316 429.21 294.895 422.052ZM711.103 566.894C698.682 582.051 636.577 650.262 526.051 658.893C414.894 667.735 283.105 603.314 253.21 587.946V511.315C305.842 558.894 435.104 590.683 528.157 590.683C548.578 590.683 567.314 589.209 583.946 586.472C634.683 578.051 682.893 539.525 711.103 491.736V566.894Z" fill="#10355B"/>
<path d="M389.001 479.737C389.422 479.737 389.633 479.737 390.054 479.737C395.106 479.316 510.264 469.21 557.842 429.211C571.527 436.579 587.948 442.474 607.737 445.211C608.369 445.211 608.79 445.421 609.421 445.421C615.316 445.421 620.579 441 621.421 435.105C622.263 428.579 617.842 422.474 611.105 421.421C546.685 412.158 525.001 365 523.948 363.106C521.211 357 514.264 354.263 508.158 357C502.053 359.737 499.316 366.684 502.053 372.79C502.685 374.263 512.58 395.737 536.579 415.105C499.106 441.21 418.685 453.21 388.159 455.737C381.422 456.368 376.58 462.052 377.212 468.789C377.633 475.105 382.896 479.737 389.001 479.737Z" fill="#10355B"/>
</svg>
