<svg width="965" height="965" viewBox="0 0 965 965" fill="none" xmlns="http://www.w3.org/2000/svg">
<circle cx="482.5" cy="482.5" r="482.5" fill="#DDE0F8"/>
<path d="M723.524 540.819C712.391 545.432 694.033 543.055 681.865 543.041L242.481 541.875C238.55 538.303 236.865 536.878 236.815 531.121C236.778 527.263 238.45 524.098 241.059 521.4C248.996 513.217 273.819 515.768 284.79 515.599L563.925 515.929L661.085 515.803C680.442 515.789 700.498 514.656 719.705 516.991C725.471 521.316 725.995 522.406 728.603 529.178C727.717 535.18 727.405 536.187 723.524 540.819ZM659.512 687.195C652.873 704.714 647.182 735.321 631.706 746.424C614.408 750.548 592.705 748.71 574.846 748.801L468.8 749.011L381.662 749.038C365.126 749.032 346.954 750.534 330.755 747.452C326.224 745.118 323.853 742.239 321.607 737.781C311.934 718.551 305.994 695.784 298.718 675.414L256.946 561.224L310.911 561.239C313.557 561.239 324.103 560.288 326.025 561.245C326.025 561.245 326.649 564.187 326.774 564.816L350.311 678.153C353.357 692.708 354.742 710.436 360.408 724.105C361.594 726.984 363.229 728.382 365.662 730.178C371.753 730.38 372.277 730.534 377.182 727.027C378.243 724.602 379.066 721.939 378.929 719.269C378.243 705.385 372.152 688.103 369.219 674.163L344.92 561.385L422.523 561.329L432.357 678.188L435.215 712.303C435.54 715.252 435.477 721.528 436.663 724.113C437.437 725.797 439.546 727.872 440.719 729.395C447.059 730.052 447.671 730.444 452.962 727.062C457.979 713.917 451.977 685.637 450.691 671.068L441.343 561.175L523.389 561.203L512.057 713.882C512.044 722.393 510.959 723.875 516.987 729.913L524.737 729.255C525.773 727.941 528.431 725.343 528.93 723.917C532.712 712.904 532.125 694.631 533.049 682.926L541.773 566.934C542.184 563.461 542.771 563.67 545.105 561.309L623.681 561.218C617.616 581.818 583.033 715.839 587.788 727.027C593.192 730.584 593.853 730.087 600.393 729.424C601.416 728.312 603.8 726.356 604.387 725.084C609.454 714.238 610.864 694.301 613.634 682.059L642.963 561.329L705.727 561.581L659.512 687.195ZM356.477 431.996C369.544 409.475 392.046 397.197 416.545 390.922C423.971 390.481 432.12 390.244 439.459 391.403C455.895 394.003 477.698 404.674 487.471 418.426C491.027 423.444 487.196 425.819 483.864 429.048C463.096 449.18 454.56 469.438 450.179 497.704L421.225 497.642L346.168 497.725C342.836 473.658 343.934 453.596 356.477 431.996ZM534.784 228.607C546.203 237.111 548.462 271.449 555.164 285.327C561.442 298.332 567.544 302.015 581.136 306.131C581.685 306.291 586.802 307.563 587.051 307.849C590.409 311.77 588.274 323.984 592.193 330.043C597.223 337.821 603.725 340.26 612.299 342.391L613.971 342.789C618.14 350.727 621.809 355.346 629.172 360.581L631.257 362.04L607.906 423.464C586.165 411.935 569.329 406.589 545.005 405.002C537.504 405.435 529.754 406.421 522.54 408.58C520.681 409.132 509.037 413.668 508.038 413.353C501.149 411.194 488.282 393.662 481.081 388.616C467.839 379.336 453.1 375.493 437.649 371.845L534.784 228.607ZM569.354 258.591L575.17 258.228C586.951 265.37 600.081 276.655 607.694 288.122C609.89 291.442 612.374 294.397 614.945 297.438L620.773 297.731L624.243 293.51C625.428 283.468 623.569 276.32 620.436 266.788L641.815 256.502L645.31 257.375C646.57 265.775 634.639 274.09 632.006 283.168C629.46 291.959 630.258 301.051 631.269 309.995C635.375 315.096 635.363 315.026 641.852 316.025L642.988 315.158C650.227 309.82 659.225 306.277 668.298 307.604C666.014 314.488 649.84 316.606 644.174 320.434C640.492 322.922 640.929 324.459 640.317 328.421C645.984 336.967 663.057 341.335 672.779 345.179C664.055 346.276 654.682 345.676 645.909 345.172C637.946 344.717 632.642 336.024 627.662 330.378C626.377 326.403 625.191 322.154 622.945 318.604C619.488 313.139 615.981 313.076 610.09 311.58C609.191 307.34 608.38 302.287 606.383 298.416C601.915 289.744 589.46 286.509 580.998 283.825C576.268 282.322 573.323 278.864 571.301 274.426C569.105 269.625 567.457 263.616 569.354 258.591ZM601.728 219.025L604.649 221.814C605.972 232.31 605.011 243.198 604.624 253.742L601.404 255.077L594.178 246.859C592.455 235.825 595.837 227.998 601.728 219.025ZM630.383 497.466L562.303 498.465L469.561 498.529C471.808 483.729 474.004 470.025 482.778 457.453C496.144 438.293 516.175 428.363 538.565 424.1C557.361 422.864 575.981 426.058 592.218 435.98C615.432 450.172 624.106 472.324 630.383 497.466ZM737.24 506.369C721.352 491.737 680.616 497.781 660.286 498.019C658.526 498.04 649.678 498.781 648.542 498.166C648.105 497.921 648.367 497.166 648.28 496.67L646.433 487.076C642.327 466.818 634.165 452.346 621.634 436.001L649.328 363.571C662.258 363.487 687.818 366.534 697.29 356.457C698.863 354.787 699.25 351.041 699.849 348.791C695.768 338.638 685.072 332.811 676.161 327.29C682.613 321.657 690.751 315.851 694.482 308.052C693.97 300.812 694.245 298.8 688.666 293.677C682.102 287.675 659.962 289.247 651.101 289.8C657.203 278.256 665.054 267.131 665.166 253.742C662.782 247.096 660.311 244.176 654.707 239.913C643.413 237.46 635.4 239.682 625.091 244.042C622.171 228.704 628.686 210.962 612.748 200.347C609.491 198.175 605.884 197.007 602.128 196C584.343 206.699 579.401 216.448 574.496 236.146L573.76 239.158C569.342 241.554 566.309 240.863 561.454 240.165C552.518 227.097 554.59 206.476 538.328 200.053C532.487 200.787 531.127 200.529 527.283 205.302C517.923 216.881 510.447 230.996 502.073 243.435L444.501 327.82C434.978 341.853 426.242 357.17 415.958 370.601C412.127 375.611 393.456 378.099 386.816 380.803C340.302 399.741 322.068 451.081 326.249 497.627L279.997 497.621C262.612 497.69 242.706 494.958 229.165 508.402C222.126 515.39 218.719 523.888 219.018 533.727C219.318 543.195 222.288 550.609 229.389 557.046C231.985 559.4 234.906 561.092 238.026 562.65L283.317 687.265C290.456 707.027 296.297 733.778 307.404 751.526C311.073 757.403 316.976 760.667 322.48 764.524C330.979 770.477 422.161 766.983 439.384 766.963H577.179C593.741 766.934 615.581 769.471 631.444 766.313C638.67 764.866 645.272 760.834 650.489 755.726C663.431 743.036 668.935 716.58 675.163 699.808L719.942 577.772C721.614 573.418 723.561 566.228 726.744 562.755C729.352 559.91 733.358 558.505 736.192 555.864C743.53 549.01 747.049 540.567 746.999 530.63C746.962 521.38 744.254 512.826 737.24 506.369Z" fill="#10355B"/>
</svg>
