<svg width="636" height="603" viewBox="0 0 636 603" fill="none" xmlns="http://www.w3.org/2000/svg">
<path d="M575.008 104.043C579.992 107.411 580.888 107.347 582.792 113.342L537.15 281.114C530.542 305.01 526.006 338.474 514.05 359.709H420.527L470.509 160.414C474.289 145.251 486.833 118.312 483.781 103.794L575.008 104.043ZM545.915 411.78C546.195 418.637 544.067 424.657 539.39 429.711C531.83 437.896 523.71 439.372 513.042 440.094C470.117 443.264 424.475 440.385 381.27 440.425L131.391 440.416C112.015 440.385 52.317 444.521 38.5686 436.908C31.5964 433.072 24.9041 425.158 22.916 417.444C21.068 410.36 21.2081 402.063 25.0442 395.66C30.5324 386.571 39.4086 383.432 49.1249 381.276L138.979 381.015L305.136 381.046L443.208 381.024C467.512 381.024 492.825 379.643 517.046 381.564C523.962 382.116 528.498 383.927 533.93 388.267C541.379 394.192 545.467 402.229 545.915 411.78ZM475.437 520.691C478.965 526.42 479.217 526.985 477.733 533.279L469.669 538.128L469.192 538.286C463.452 539.149 462.304 539.376 457.628 535.939C456.508 525.612 461.772 519.019 463.172 509.147L463.368 507.624C469.557 510.473 471.881 515.017 475.437 520.691ZM485.629 492.368C490.333 492.157 494.589 492.4 498.621 495.052C507.582 500.891 513.518 510.559 515.478 520.974C517.998 534.456 515.702 547.97 507.498 559.043C499.49 569.834 487.729 578.874 474.149 580.774C460.344 582.72 447.828 579.981 436.936 571.239C419.491 557.277 419.351 540.836 417.223 520.691C426.463 511.234 428.955 501.205 441.052 493.585L443.852 496.731C446.428 508.362 438.448 515.551 437.44 526.71C436.74 534.864 437.608 543.222 443.096 549.642C448.696 556.092 456.032 559.608 464.46 560.102C473.393 560.62 482.773 557.756 489.213 551.439C494.925 545.835 498.033 537.375 498.089 529.41C498.173 517.183 491.173 509.743 483.221 501.37L481.905 499.996C483.445 497.462 484.481 495.107 485.629 492.368ZM103.138 530.501C99.8342 537.195 99.2183 537.187 92.3861 540.373L86.086 539.628L81.7737 533.765C81.0737 523.65 83.2857 520.848 87.7378 511.972C90.4539 512.09 93.2262 512.804 95.8862 513.275C101.794 520.322 102.186 521.334 103.138 530.501ZM110.027 494.11L113.611 492.376C117.167 493.946 121.059 495.554 124.195 497.838C129.543 501.746 132.819 505.498 133.967 511.98L138.699 517.693C140.323 524.67 141.611 530.917 140.603 538.098C138.587 552.451 132.511 563.854 120.695 572.377C108.878 580.891 92.89 583.183 78.7776 580.546C66.8493 578.317 57.0211 569.59 50.2449 559.906C42.5727 548.974 40.6966 534.095 43.1887 521.17C45.9328 507.099 55.8731 497.893 67.1294 490.186C71.2455 489.865 73.4574 489.677 77.3775 491.348L79.0297 497.822L73.1214 503.269C66.9612 508.935 62.5093 514.743 61.3053 523.296C59.9332 533.035 61.4732 542.257 67.7733 550.104C72.2815 555.715 78.5536 560.11 85.7778 560.848C95.522 561.829 104.538 559.483 111.959 552.961C118.259 547.436 121.731 541.66 122.207 533.122C123.019 519.812 119.603 512.631 110.922 502.892L109.298 501.087L110.027 494.11ZM82.3337 159.943L211.109 160.109C211.193 189.372 215.729 344.847 207.917 360.211L104.622 360.093L91.434 220.277C89.8099 202.454 91.798 174.666 82.3337 159.943ZM56.657 139.909C56.853 129.854 59.149 113.389 54.1369 104.648L53.4369 103.564L133.295 103.637C133.491 114.042 136.011 130.498 130.383 139.327L56.657 139.909ZM210.913 103.659C211.165 115.078 213.209 129.47 207.861 139.822L154.38 139.735C154.604 128.756 156.368 114.969 151.496 104.93L150.74 103.519L210.913 103.659ZM291.696 103.612C292.004 114.921 293.712 127.995 288.503 138.324L232.894 138.708C233.146 128.034 234.826 114.778 230.234 104.992L229.478 103.581L291.696 103.612ZM291.5 51.488C291.836 61.3835 293.74 73.8383 287.859 82.3365L232.53 82.3757C232.726 74.5523 234.434 61.3583 231.494 54.2574L230.234 51.558L291.5 51.488ZM229.562 160.282L291.92 160.069L291.976 303.604C291.948 319.576 295.784 346.258 288.503 359.796L232.894 359.992L233.146 217.037C233.118 200.634 236.954 174.353 229.562 160.282ZM449.676 160.249C438.224 196.059 430.327 234.342 421.171 270.863C417.419 285.729 415.235 309.608 405.099 321.278C408.291 333.263 401.683 348.408 398.63 360.493L312.752 360.423L312.808 220.882C312.808 206.355 316.896 171.911 309.252 160.069L449.676 160.249ZM463.172 103.707C461.044 112.944 459.56 126.074 452.84 132.956C453.064 135.6 452.784 137.137 452.224 139.688L313.508 139.021C313.732 128.286 315.44 114.851 310.82 105.026L310.064 103.62L463.172 103.707ZM634.761 8.3949C633.837 5.46039 631.653 3.55353 629.441 1.53467L549.471 0.859863C550.675 11.181 544.039 23.6973 540.567 33.366L523.458 83.5518L313.256 82.6669C313.228 69.459 316.336 42.9087 310.372 32.0864C293.88 26.6262 267.447 30.2579 249.862 30.5575C241.77 30.6974 230.626 29.5607 223.262 33.2092C218.333 35.6733 214.497 39.4786 212.453 44.6923C208.953 53.731 210.773 72.1891 210.913 82.1406L157.936 82.0789C152.392 75.9243 152.756 72.9031 144.859 69.3246C143.459 69.9854 139.567 71.2398 138.615 72.2283C135.507 75.4932 136.571 80.2029 131.559 81.4881C124.727 83.2466 115.907 82.2805 108.851 82.3141L62.5653 82.4066C57.8332 82.4066 49.0688 81.1913 44.6727 82.4066C40.3326 83.633 37.7285 86.7327 35.9924 90.678C32.9964 97.7174 33.4443 148.69 36.9164 155.273L38.1764 157.457C47.1647 159.622 55.3969 160.375 64.6372 160.618L83.0616 360.471C58.617 360.163 34.4523 356.013 15.3558 374.432C5.63953 383.801 -0.296576 396.774 0.0114323 410.382C0.29144 424.296 7.06768 439.159 17.568 448.248C36.8885 464.94 61.0811 462.813 84.9938 462.884C58.8691 474.75 37.3085 477.159 25.9682 508.237C19.668 525.439 19.668 543.96 27.6483 560.574C36.1885 578.349 50.441 592.859 69.2855 599.412C86.646 605.463 106.498 603.257 122.795 595.08C138.699 587.091 151.944 572.266 157.656 555.284C163.452 537.932 161.66 517.685 153.036 501.535C148.528 493.075 142.507 484.834 133.603 480.785L131.895 478.674C125.091 471.046 108.682 468.378 99.5542 463.324C175.156 458.765 252.382 461.761 328.208 461.73L409.523 461.596C426.463 461.582 443.74 460.677 460.512 463.292C434.135 473.84 415.487 478.509 403.307 507.24C396.25 523.846 396.167 543.214 403.419 559.789C411.147 577.423 427.107 591.776 444.944 598.494C462.668 605.173 479.329 603.101 496.213 595.19C513.882 586.934 526.874 571.592 533.538 553.369C539.839 536.057 537.963 518.336 530.122 501.895C517.97 476.382 497.221 473.84 474.205 462.845C500.469 462.476 531.83 466.541 551.823 446.083C560.755 436.955 566.327 425.38 566.047 412.429C565.795 397.583 559.999 384.784 549.247 374.729L535.946 363.546L584.836 184.523C590.66 163.012 600.656 138.612 603.204 116.749C603.904 110.651 603.036 104.712 600.152 99.2574C596.596 92.5008 590.044 86.3715 582.624 84.2602C572.235 81.3089 555.771 83.381 544.823 83.4985L566.943 21.8381L611.661 21.6896C618.661 21.6196 626.641 22.7733 632.717 18.8727C635.013 14.4598 636.329 13.4014 634.761 8.3949Z" fill="#EBB133"/>
</svg>
