<svg width="636" height="603" viewBox="0 0 636 603" fill="none" xmlns="http://www.w3.org/2000/svg">
<path d="M575.008 104.043C579.992 107.412 580.888 107.347 582.792 113.342L537.15 281.115C530.542 305.01 526.006 338.474 514.05 359.71H420.527L470.509 160.414C474.289 145.252 486.833 118.312 483.781 103.794L575.008 104.043ZM545.915 411.78C546.195 418.638 544.067 424.658 539.39 429.712C531.83 437.897 523.71 439.372 513.042 440.095C470.117 443.264 424.475 440.386 381.27 440.425L131.391 440.417C112.015 440.386 52.317 444.522 38.5686 436.908C31.5964 433.072 24.9041 425.159 22.916 417.445C21.068 410.361 21.2081 402.064 25.0442 395.66C30.5324 386.571 39.4086 383.432 49.1249 381.276L138.979 381.016L305.136 381.047L443.208 381.024C467.512 381.024 492.825 379.644 517.046 381.565C523.962 382.116 528.498 383.928 533.93 388.268C541.379 394.193 545.467 402.229 545.915 411.78ZM475.437 520.691C478.965 526.42 479.217 526.986 477.733 533.279L469.669 538.129L469.192 538.286C463.452 539.15 462.304 539.377 457.628 535.94C456.508 525.612 461.772 519.02 463.172 509.147L463.368 507.625C469.557 510.473 471.881 515.018 475.437 520.691ZM485.629 492.369C490.333 492.157 494.589 492.4 498.621 495.053C507.582 500.892 513.518 510.56 515.478 520.974C517.998 534.456 515.702 547.97 507.498 559.044C499.49 569.835 487.729 578.875 474.149 580.774C460.344 582.721 447.828 579.981 436.936 571.239C419.491 557.278 419.351 540.837 417.223 520.691C426.463 511.235 428.955 501.205 441.052 493.585L443.852 496.732C446.428 508.362 438.448 515.551 437.44 526.711C436.74 534.865 437.608 543.222 443.096 549.642C448.696 556.093 456.032 559.609 464.46 560.103C473.393 560.621 482.773 557.756 489.213 551.439C494.925 545.836 498.033 537.376 498.089 529.41C498.173 517.183 491.173 509.744 483.221 501.37L481.905 499.997C483.445 497.462 484.481 495.108 485.629 492.369ZM103.138 530.501C99.8342 537.195 99.2183 537.188 92.3861 540.374L86.086 539.628L81.7737 533.766C81.0737 523.65 83.2857 520.848 87.7378 511.973C90.4539 512.09 93.2262 512.804 95.8862 513.275C101.794 520.322 102.186 521.335 103.138 530.501ZM110.027 494.111L113.611 492.377C117.167 493.946 121.059 495.555 124.195 497.839C129.543 501.747 132.819 505.498 133.967 511.98L138.699 517.694C140.323 524.67 141.611 530.917 140.603 538.098C138.587 552.451 132.511 563.854 120.695 572.377C108.878 580.892 92.89 583.183 78.7776 580.547C66.8493 578.318 57.0211 569.591 50.2449 559.907C42.5727 548.975 40.6966 534.095 43.1887 521.17C45.9328 507.099 55.8731 497.894 67.1294 490.187C71.2455 489.865 73.4574 489.677 77.3775 491.349L79.0297 497.823L73.1214 503.269C66.9612 508.936 62.5093 514.743 61.3053 523.297C59.9332 533.036 61.4732 542.257 67.7733 550.105C72.2815 555.716 78.5536 560.111 85.7778 560.849C95.522 561.83 104.538 559.483 111.959 552.962C118.259 547.437 121.731 541.66 122.207 533.122C123.019 519.812 119.603 512.632 110.922 502.893L109.298 501.088L110.027 494.111ZM82.3337 159.944L211.109 160.109C211.193 189.373 215.729 344.847 207.917 360.211L104.622 360.094L91.434 220.277C89.8099 202.455 91.798 174.667 82.3337 159.944ZM56.657 139.909C56.853 129.854 59.149 113.39 54.1369 104.648L53.4369 103.564L133.295 103.637C133.491 114.042 136.011 130.498 130.383 139.327L56.657 139.909ZM210.913 103.66C211.165 115.078 213.209 129.471 207.861 139.823L154.38 139.736C154.604 128.757 156.368 114.969 151.496 104.931L150.74 103.52L210.913 103.66ZM291.696 103.612C292.004 114.922 293.712 127.995 288.503 138.325L232.894 138.708C233.146 128.034 234.826 114.779 230.234 104.992L229.478 103.581L291.696 103.612ZM291.5 51.4885C291.836 61.384 293.74 73.8388 287.859 82.337L232.53 82.3762C232.726 74.5528 234.434 61.3588 231.494 54.2579L230.234 51.5585L291.5 51.4885ZM229.562 160.283L291.92 160.07L291.976 303.605C291.948 319.576 295.784 346.258 288.503 359.797L232.894 359.993L233.146 217.038C233.118 200.635 236.954 174.353 229.562 160.283ZM449.676 160.249C438.224 196.059 430.327 234.342 421.171 270.863C417.419 285.729 415.235 309.608 405.099 321.279C408.291 333.263 401.683 348.409 398.63 360.494L312.752 360.424L312.808 220.882C312.808 206.355 316.896 171.911 309.252 160.07L449.676 160.249ZM463.172 103.707C461.044 112.945 459.56 126.074 452.84 132.957C453.064 135.6 452.784 137.137 452.224 139.688L313.508 139.022C313.732 128.286 315.44 114.852 310.82 105.026L310.064 103.62L463.172 103.707ZM634.761 8.39539C633.837 5.46088 631.653 3.55402 629.441 1.53516L549.471 0.860352C550.675 11.1815 544.039 23.6978 540.567 33.3665L523.458 83.5522L313.256 82.6674C313.228 69.4595 316.336 42.9092 310.372 32.0869C293.88 26.6267 267.447 30.2584 249.862 30.558C241.77 30.6979 230.626 29.5612 223.262 33.2097C218.333 35.6738 214.497 39.4791 212.453 44.6928C208.953 53.7314 210.773 72.1896 210.913 82.1411L157.936 82.0794C152.392 75.9248 152.756 72.9036 144.859 69.3251C143.459 69.9859 139.567 71.2403 138.615 72.2288C135.507 75.4937 136.571 80.2034 131.559 81.4886C124.727 83.2471 115.907 82.281 108.851 82.3146L62.5653 82.407C57.8332 82.407 49.0688 81.1918 44.6727 82.407C40.3326 83.6335 37.7285 86.7332 35.9924 90.6785C32.9964 97.7179 33.4443 148.69 36.9164 155.273L38.1764 157.458C47.1647 159.622 55.3969 160.375 64.6372 160.619L83.0616 360.472C58.617 360.164 34.4523 356.014 15.3558 374.433C5.63953 383.802 -0.296576 396.775 0.0114323 410.383C0.29144 424.297 7.06768 439.159 17.568 448.248C36.8885 464.941 61.0811 462.814 84.9938 462.885C58.8691 474.75 37.3085 477.16 25.9682 508.237C19.668 525.439 19.668 543.96 27.6483 560.574C36.1885 578.349 50.441 592.86 69.2855 599.413C86.646 605.463 106.498 603.258 122.795 595.081C138.699 587.092 151.944 572.267 157.656 555.285C163.452 537.933 161.66 517.686 153.036 501.535C148.528 493.075 142.507 484.835 133.603 480.786L131.895 478.674C125.091 471.046 108.682 468.378 99.5542 463.324C175.156 458.766 252.382 461.762 328.208 461.731L409.523 461.596C426.463 461.582 443.74 460.678 460.512 463.293C434.135 473.84 415.487 478.509 403.307 507.24C396.25 523.846 396.167 543.214 403.419 559.789C411.147 577.423 427.107 591.777 444.944 598.494C462.668 605.173 479.329 603.101 496.213 595.191C513.882 586.935 526.874 571.592 533.538 553.37C539.839 536.057 537.963 518.337 530.122 501.896C517.97 476.383 497.221 473.84 474.205 462.846C500.469 462.476 531.83 466.542 551.823 446.084C560.755 436.956 566.327 425.38 566.047 412.43C565.795 397.584 559.999 384.785 549.247 374.73L535.946 363.546L584.836 184.523C590.66 163.013 600.656 138.613 603.204 116.75C603.904 110.651 603.036 104.712 600.152 99.2579C596.596 92.5013 590.044 86.3719 582.624 84.2607C572.235 81.3094 555.771 83.3815 544.823 83.499L566.943 21.8386L611.661 21.6901C618.661 21.6201 626.641 22.7737 632.717 18.8732C635.013 14.4603 636.329 13.4019 634.761 8.39539Z" fill="#10355B"/>
</svg>
