<svg width="965" height="965" viewBox="0 0 965 965" fill="none" xmlns="http://www.w3.org/2000/svg">
<circle cx="482.5" cy="482.5" r="482.5" fill="#C1E3C4"/>
<path d="M248.253 499.25C265.622 509.108 286.881 523.828 307.786 518.498C323.838 514.414 339.426 501.866 354.998 499.423C366.107 497.683 386.321 513.97 397.239 517.992C404.592 520.694 413.361 521.126 421.117 520.546C445.614 518.745 466.85 501.298 491.545 502.692C501.913 503.285 512.738 508.38 522.48 511.909C537.322 517.289 550.655 520.879 566.63 520.016C582.259 519.177 593.628 510.367 607.792 504.987C610.371 504.025 616.972 500.743 619.539 500.805C635.579 501.236 652.668 517.499 668.893 520.534C687.154 523.939 704.947 511.625 719.099 501.718C720.863 555.378 708.574 601.006 682.7 647.93C670.534 668.4 655.395 687.105 638.084 703.478C608.928 731.043 569.883 753.573 528.496 747.181C512.303 744.689 496.919 739.766 480.353 740.185C459.032 740.728 439.472 749.439 417.617 748.588C377.812 747.033 337.073 713.991 311.455 685.637C264.996 634.172 244.485 567.815 248.253 499.25ZM280.506 393.78C315.174 334.468 371.375 292.887 437.88 275.786L443.36 276.242C443.156 281.227 441.55 282.856 438.986 286.89C434.006 294.738 427.639 302.4 430.534 312.283C431.9 316.947 435.838 322.352 440.296 324.437C456.053 331.766 471.689 317.108 486.53 318.058C501.512 319.02 516.028 332.432 532.109 325.498C536.582 323.573 540.505 319.44 541.998 314.8C546.006 302.375 530.439 285.977 525.03 274.811C559.755 283.226 594.564 295.91 622.87 318.453C674.458 359.565 708.92 416.643 716.52 482.716L712.954 485.295C706.156 489.799 681.762 504.63 674.47 503.741C655.543 501.409 643.365 482.519 622.426 482.297C603.19 482.099 590.232 494.66 572.764 499.78C565.678 501.853 554.923 500.94 547.598 500.212C530.481 498.534 514.352 487.541 497.159 484.024L494.609 483.518L494.587 405.378C494.567 393.101 495.905 378.776 494.095 366.709C493.151 360.404 492.862 360.49 487.981 356.801C481.846 356.628 481.493 356.937 476.479 360.539C473.013 370.373 475.119 387.067 475.119 397.716L475.225 484.024C456.482 488.454 438.739 501.261 419.729 502.31C395.204 503.667 376.256 476.991 350.695 482.272L349.202 482.58C333.284 485.863 321.197 496.622 306.468 500.015C286.528 504.605 265.792 487.985 249.501 478.595C256.536 448.921 265.018 420.283 280.506 393.78ZM467.174 271.369C471.133 254.428 466.667 234.599 469.674 216.832C477.015 216.474 488.03 215.277 495.116 217.017C500.138 218.263 502.068 222.248 502.146 227.061C502.343 240.288 499.977 259.585 503.272 271.936C506.702 284.805 517.754 298.908 524.164 310.778L499.194 302.4C483.966 296.465 462.949 305.065 447.967 309.248C454.376 297.933 464.237 283.917 467.174 271.369ZM345.314 739.84C375.559 760.396 411.114 772.179 447.749 764.776C462.343 761.827 476.289 757.496 491.362 758.73C540.849 769.033 574.37 770.835 618.663 741.962C674.766 705.403 717.335 640.934 730.734 575.626C745.664 502.877 734.251 428.92 692.867 366.598C657.85 313.838 600.403 271.171 537.835 258.327L520.48 255.513C520.586 240.127 524.305 217.942 513.006 206.11C503.871 196.547 487.791 198.04 475.423 197.978L472.316 198.016C464.717 200.002 458.799 202.754 454.474 209.676C447.297 221.163 449.713 241.336 449.804 254.588C374.608 268.703 314.667 309.606 271.814 372.434C233.603 428.476 221.15 501.594 233.73 567.692C246.739 636.048 287.472 700.542 345.314 739.84Z" fill="#10355B"/>
</svg>
