<svg width="885" height="885" viewBox="0 0 885 885" fill="none" xmlns="http://www.w3.org/2000/svg">
<circle cx="442.5" cy="442.5" r="442.5" fill="#E4EDC7"/>
<path d="M565.942 170.188C515.26 163.532 475.209 181.548 454.943 228.834C451.83 235.817 450.614 243.482 450.945 251.251C451.259 258.13 452.124 259.166 458.83 258.851C519.258 256.19 549.103 226.003 565.942 170.188ZM444.829 319.291C399.14 317.561 346.229 338.537 328.341 383.451C324.527 393.58 320.511 403.628 316.753 413.782C309.77 432.598 299.453 449.092 284.586 462.81C255.441 490.731 242.821 533.469 246.672 572.946C250.338 653.8 327.42 741.125 413.399 711.147C434.383 703.809 455.938 704.071 477.438 709.64C483.296 711.147 489.118 712.759 495.013 714.134C508.867 717.344 522.869 718.157 536.575 713.911C594.258 698.111 626.332 640.475 636.686 585.092C644.608 541.999 631.896 495.735 601.461 463.884C585.267 446.774 572.408 427.723 564.726 405.291C544.847 349.031 505.717 317.81 444.829 319.291ZM428.672 294.16C430.109 276.316 425.872 259.794 418.687 243.967C403.396 209.011 372.979 178.311 333.868 172.913C324.582 171.552 320.492 166.495 320.75 158.306C321.027 149.932 326.112 145.255 335.36 145.767C344.627 146.29 353.562 148.584 362.073 152.449C389.431 164.831 412.552 182.06 427.401 208.891C428.009 209.967 428.543 211.211 430.791 211.513C433.425 209.496 435.065 205.997 437.147 202.983C468.429 154.884 523.145 135.115 578.746 145.229C590.02 147.051 592.636 150.85 592.434 162.117C592.36 165.642 591.881 169.063 590.776 172.441C584.346 192.187 576.461 211.224 565.278 228.86C537.22 272.515 501.867 282.159 452.419 282.106C450.485 285.945 450.577 289.274 451.664 292.576C454.63 294.776 457.946 294.134 461.06 294.344C495.824 296.649 525.651 310.315 551.001 333.913C574.453 356.199 581.362 388.679 596.708 416.048C603.101 427.474 610.488 438.114 619.7 447.585C694.258 522.411 667.931 655.372 588.491 716.493C569.037 731.272 547.04 739.985 522.574 741.845C508.72 742.894 495.345 739.631 482.007 736.512C473.311 734.482 464.615 732.635 455.735 731.586C441.937 729.961 428.506 731.154 415.076 734.836C376.056 747.217 342.563 743.496 308.26 721.052C223.753 669.849 195.179 551.354 248.164 467.789C254.686 457.517 262.608 448.371 270.88 439.528C283.702 425.811 293.024 410.074 299.048 392.321C301.296 385.691 303.893 379.18 306.325 372.603C320.787 333.598 370.106 301.119 411.189 298.092C416.237 297.659 421.248 296.518 426.259 295.629C426.83 295.536 427.309 294.998 428.672 294.16Z" fill="#231F20"/>
<path d="M355.291 663.493C347.137 662.301 339 658.842 331.603 653.601C282.845 619.417 266.044 548.693 303.443 500.228C308.374 493.205 314.145 491.213 319.635 493.822C327.098 497.359 329.696 506.123 324.748 513.147C313.273 529.813 303.574 549.453 307.536 570.128C312.698 602.018 329.449 628.353 361.078 640.041C368.459 642.543 370.859 646.592 369.248 654.111C367.719 661.265 363.856 664.044 355.291 663.493Z" fill="#231F20"/>
</svg>
